<svg height="700" viewBox="0 0 1000 700" width="1000" xmlns="http://www.w3.org/2000/svg">
<g class="g-chart">
<g class="g-title" transform="translate(500,25)">
<text dy=".35em" fill="#777" font-family="sans-serif" font-size="24px" text-anchor="middle" x="0" y="0">
Learning curve
</text>
</g>
<g class="x-axis" transform="translate(60,650)">
<line shape-rendering="crispEdges" stroke="#bbbbbb" stroke-width="1" x1="0" x2="900" y1="0" y2="0"/>
<g class="tick" transform="translate(0,0)">
<line shape-rendering="crispEdges" stroke="#bbbbbb" stroke-width="1px" x1="0" x2="0" y1="0" y2="6"/>
<text dy=".35em" fill="#777" font-family="sans-serif" font-size="12px" text-anchor="middle" transform="rotate(0,0,16)" x="0" y="16">
0
</text>
</g>
<g class="tick" transform="translate(68.18182,0)">
<line shape-rendering="crispEdges" stroke="#bbbbbb" stroke-width="1px" x1="0" x2="0" y1="0" y2="6"/>
<text dy=".35em" fill="#777" font-family="sans-serif" font-size="12px" text-anchor="middle" transform="rotate(0,0,16)" x="0" y="16">
20000
</text>
</g>
<g class="tick" transform="translate(136.36365,0)">
<line shape-rendering="crispEdges" stroke="#bbbbbb" stroke-width="1px" x1="0" x2="0" y1="0" y2="6"/>
<text dy=".35em" fill="#777" font-family="sans-serif" font-size="12px" text-anchor="middle" transform="rotate(0,0,16)" x="0" y="16">
40000
</text>
</g>
<g class="tick" transform="translate(204.54546,0)">
<line shape-rendering="crispEdges" stroke="#bbbbbb" stroke-width="1px" x1="0" x2="0" y1="0" y2="6"/>
<text dy=".35em" fill="#777" font-family="sans-serif" font-size="12px" text-anchor="middle" transform="rotate(0,0,16)" x="0" y="16">
60000
</text>
</g>
<g class="tick" transform="translate(272.7273,0)">
<line shape-rendering="crispEdges" stroke="#bbbbbb" stroke-width="1px" x1="0" x2="0" y1="0" y2="6"/>
<text dy=".35em" fill="#777" font-family="sans-serif" font-size="12px" text-anchor="middle" transform="rotate(0,0,16)" x="0" y="16">
80000
</text>
</g>
<g class="tick" transform="translate(340.9091,0)">
<line shape-rendering="crispEdges" stroke="#bbbbbb" stroke-width="1px" x1="0" x2="0" y1="0" y2="6"/>
<text dy=".35em" fill="#777" font-family="sans-serif" font-size="12px" text-anchor="middle" transform="rotate(0,0,16)" x="0" y="16">
100000
</text>
</g>
<g class="tick" transform="translate(409.0909,0)">
<line shape-rendering="crispEdges" stroke="#bbbbbb" stroke-width="1px" x1="0" x2="0" y1="0" y2="6"/>
<text dy=".35em" fill="#777" font-family="sans-serif" font-size="12px" text-anchor="middle" transform="rotate(0,0,16)" x="0" y="16">
120000
</text>
</g>
<g class="tick" transform="translate(477.2727,0)">
<line shape-rendering="crispEdges" stroke="#bbbbbb" stroke-width="1px" x1="0" x2="0" y1="0" y2="6"/>
<text dy=".35em" fill="#777" font-family="sans-serif" font-size="12px" text-anchor="middle" transform="rotate(0,0,16)" x="0" y="16">
140000
</text>
</g>
<g class="tick" transform="translate(545.4546,0)">
<line shape-rendering="crispEdges" stroke="#bbbbbb" stroke-width="1px" x1="0" x2="0" y1="0" y2="6"/>
<text dy=".35em" fill="#777" font-family="sans-serif" font-size="12px" text-anchor="middle" transform="rotate(0,0,16)" x="0" y="16">
160000
</text>
</g>
<g class="tick" transform="translate(613.63635,0)">
<line shape-rendering="crispEdges" stroke="#bbbbbb" stroke-width="1px" x1="0" x2="0" y1="0" y2="6"/>
<text dy=".35em" fill="#777" font-family="sans-serif" font-size="12px" text-anchor="middle" transform="rotate(0,0,16)" x="0" y="16">
180000
</text>
</g>
<g class="tick" transform="translate(681.8182,0)">
<line shape-rendering="crispEdges" stroke="#bbbbbb" stroke-width="1px" x1="0" x2="0" y1="0" y2="6"/>
<text dy=".35em" fill="#777" font-family="sans-serif" font-size="12px" text-anchor="middle" transform="rotate(0,0,16)" x="0" y="16">
200000
</text>
</g>
<g class="tick" transform="translate(750,0)">
<line shape-rendering="crispEdges" stroke="#bbbbbb" stroke-width="1px" x1="0" x2="0" y1="0" y2="6"/>
<text dy=".35em" fill="#777" font-family="sans-serif" font-size="12px" text-anchor="middle" transform="rotate(0,0,16)" x="0" y="16">
220000
</text>
</g>
<g class="tick" transform="translate(818.1818,0)">
<line shape-rendering="crispEdges" stroke="#bbbbbb" stroke-width="1px" x1="0" x2="0" y1="0" y2="6"/>
<text dy=".35em" fill="#777" font-family="sans-serif" font-size="12px" text-anchor="middle" transform="rotate(0,0,16)" x="0" y="16">
240000
</text>
</g>
<g class="tick" transform="translate(886.36365,0)">
<line shape-rendering="crispEdges" stroke="#bbbbbb" stroke-width="1px" x1="0" x2="0" y1="0" y2="6"/>
<text dy=".35em" fill="#777" font-family="sans-serif" font-size="12px" text-anchor="middle" transform="rotate(0,0,16)" x="0" y="16">
260000
</text>
</g>
<text fill="#777" font-family="sans-serif" font-size="14px" text-anchor="middle" transform="rotate(0)" x="450" y="42">
Kilométrage
</text>
</g>
<g class="y-axis" transform="translate(60,90)">
<line shape-rendering="crispEdges" stroke="#bbbbbb" stroke-width="1" x1="0" x2="0" y1="0" y2="560"/>
<g class="tick" transform="translate(0,560)">
<line shape-rendering="crispEdges" stroke="#bbbbbb" stroke-width="1px" x1="0" x2="-6" y1="0" y2="0"/>
<text dy=".35em" fill="#777" font-family="sans-serif" font-size="12px" text-anchor="end" transform="rotate(0,-12,0)" x="-12" y="0">
0
</text>
</g>
<g class="tick" transform="translate(0,514.9658)">
<line shape-rendering="crispEdges" stroke="#bbbbbb" stroke-width="1px" x1="0" x2="-6" y1="0" y2="0"/>
<text dy=".35em" fill="#777" font-family="sans-serif" font-size="12px" text-anchor="end" transform="rotate(0,-12,0)" x="-12" y="0">
1000
</text>
</g>
<g class="tick" transform="translate(0,469.93164)">
<line shape-rendering="crispEdges" stroke="#bbbbbb" stroke-width="1px" x1="0" x2="-6" y1="0" y2="0"/>
<text dy=".35em" fill="#777" font-family="sans-serif" font-size="12px" text-anchor="end" transform="rotate(0,-12,0)" x="-12" y="0">
2000
</text>
</g>
<g class="tick" transform="translate(0,424.89746)">
<line shape-rendering="crispEdges" stroke="#bbbbbb" stroke-width="1px" x1="0" x2="-6" y1="0" y2="0"/>
<text dy=".35em" fill="#777" font-family="sans-serif" font-size="12px" text-anchor="end" transform="rotate(0,-12,0)" x="-12" y="0">
3000
</text>
</g>
<g class="tick" transform="translate(0,379.86328)">
<line shape-rendering="crispEdges" stroke="#bbbbbb" stroke-width="1px" x1="0" x2="-6" y1="0" y2="0"/>
<text dy=".35em" fill="#777" font-family="sans-serif" font-size="12px" text-anchor="end" transform="rotate(0,-12,0)" x="-12" y="0">
4000
</text>
</g>
<g class="tick" transform="translate(0,334.8291)">
<line shape-rendering="crispEdges" stroke="#bbbbbb" stroke-width="1px" x1="0" x2="-6" y1="0" y2="0"/>
<text dy=".35em" fill="#777" font-family="sans-serif" font-size="12px" text-anchor="end" transform="rotate(0,-12,0)" x="-12" y="0">
5000
</text>
</g>
<g class="tick" transform="translate(0,289.79492)">
<line shape-rendering="crispEdges" stroke="#bbbbbb" stroke-width="1px" x1="0" x2="-6" y1="0" y2="0"/>
<text dy=".35em" fill="#777" font-family="sans-serif" font-size="12px" text-anchor="end" transform="rotate(0,-12,0)" x="-12" y="0">
6000
</text>
</g>
<g class="tick" transform="translate(0,244.76074)">
<line shape-rendering="crispEdges" stroke="#bbbbbb" stroke-width="1px" x1="0" x2="-6" y1="0" y2="0"/>
<text dy=".35em" fill="#777" font-family="sans-serif" font-size="12px" text-anchor="end" transform="rotate(0,-12,0)" x="-12" y="0">
7000
</text>
</g>
<g class="tick" transform="translate(0,199.72656)">
<line shape-rendering="crispEdges" stroke="#bbbbbb" stroke-width="1px" x1="0" x2="-6" y1="0" y2="0"/>
<text dy=".35em" fill="#777" font-family="sans-serif" font-size="12px" text-anchor="end" transform="rotate(0,-12,0)" x="-12" y="0">
8000
</text>
</g>
<g class="tick" transform="translate(0,154.69238)">
<line shape-rendering="crispEdges" stroke="#bbbbbb" stroke-width="1px" x1="0" x2="-6" y1="0" y2="0"/>
<text dy=".35em" fill="#777" font-family="sans-serif" font-size="12px" text-anchor="end" transform="rotate(0,-12,0)" x="-12" y="0">
9000
</text>
</g>
<g class="tick" transform="translate(0,109.6582)">
<line shape-rendering="crispEdges" stroke="#bbbbbb" stroke-width="1px" x1="0" x2="-6" y1="0" y2="0"/>
<text dy=".35em" fill="#777" font-family="sans-serif" font-size="12px" text-anchor="end" transform="rotate(0,-12,0)" x="-12" y="0">
10000
</text>
</g>
<g class="tick" transform="translate(0,64.624054)">
<line shape-rendering="crispEdges" stroke="#bbbbbb" stroke-width="1px" x1="0" x2="-6" y1="0" y2="0"/>
<text dy=".35em" fill="#777" font-family="sans-serif" font-size="12px" text-anchor="end" transform="rotate(0,-12,0)" x="-12" y="0">
11000
</text>
</g>
<g class="tick" transform="translate(0,19.589844)">
<line shape-rendering="crispEdges" stroke="#bbbbbb" stroke-width="1px" x1="0" x2="-6" y1="0" y2="0"/>
<text dy=".35em" fill="#777" font-family="sans-serif" font-size="12px" text-anchor="end" transform="rotate(0,-12,0)" x="-12" y="0">
12000
</text>
</g>
<text fill="#777" font-family="sans-serif" font-size="14px" text-anchor="middle" transform="rotate(-90)" x="-280" y="-42">
Prix
</text>
</g>
<g class="g-view" transform="translate(60,90)">
<g>
<g class="scatter-point" transform="translate(818.1818,395.62524)">
<rect fill="#409EFF" height="10" width="10" x="-5" y="-5"/>
</g>
<g class="scatter-point" transform="translate(476.59088,388.87012)">
<rect fill="#409EFF" height="10" width="10" x="-5" y="-5"/>
</g>
<g class="scatter-point" transform="translate(513.0682,361.8496)">
<rect fill="#409EFF" height="10" width="10" x="-5" y="-5"/>
</g>
<g class="scatter-point" transform="translate(632.48865,359.5979)">
<rect fill="#409EFF" height="10" width="10" x="-5" y="-5"/>
</g>
<g class="scatter-point" transform="translate(600,323.57056)">
<rect fill="#409EFF" height="10" width="10" x="-5" y="-5"/>
</g>
<g class="scatter-point" transform="translate(391.36365,319.06714)">
<rect fill="#409EFF" height="10" width="10" x="-5" y="-5"/>
</g>
<g class="scatter-point" transform="translate(568.63635,298.80176)">
<rect fill="#409EFF" height="10" width="10" x="-5" y="-5"/>
</g>
<g class="scatter-point" transform="translate(303.4091,290.24527)">
<rect fill="#409EFF" height="10" width="10" x="-5" y="-5"/>
</g>
<g class="scatter-point" transform="translate(492.61365,289.83997)">
<rect fill="#409EFF" height="10" width="10" x="-5" y="-5"/>
</g>
<g class="scatter-point" transform="translate(286.36362,280.78812)">
<rect fill="#409EFF" height="10" width="10" x="-5" y="-5"/>
</g>
<g class="scatter-point" transform="translate(279.64432,272.2316)">
<rect fill="#409EFF" height="10" width="10" x="-5" y="-5"/>
</g>
<g class="scatter-point" transform="translate(214.97726,272.2316)">
<rect fill="#409EFF" height="10" width="10" x="-5" y="-5"/>
</g>
<g class="scatter-point" transform="translate(252.27274,262.77444)">
<rect fill="#409EFF" height="10" width="10" x="-5" y="-5"/>
</g>
<g class="scatter-point" transform="translate(332.38638,253.76758)">
<rect fill="#409EFF" height="10" width="10" x="-5" y="-5"/>
</g>
<g class="scatter-point" transform="translate(228.40909,253.76758)">
<rect fill="#409EFF" height="10" width="10" x="-5" y="-5"/>
</g>
<g class="scatter-point" transform="translate(259.17615,249.26419)">
<rect fill="#409EFF" height="10" width="10" x="-5" y="-5"/>
</g>
<g class="scatter-point" transform="translate(164.4375,249.26419)">
<rect fill="#409EFF" height="10" width="10" x="-5" y="-5"/>
</g>
<g class="scatter-point" transform="translate(317.04544,245.21109)">
<rect fill="#409EFF" height="10" width="10" x="-5" y="-5"/>
</g>
<g class="scatter-point" transform="translate(207.78069,222.69403)">
<rect fill="#409EFF" height="10" width="10" x="-5" y="-5"/>
</g>
<g class="scatter-point" transform="translate(223.88864,219.76678)">
<rect fill="#409EFF" height="10" width="10" x="-5" y="-5"/>
</g>
<g class="scatter-point" transform="translate(184.09091,200.17691)">
<rect fill="#409EFF" height="10" width="10" x="-5" y="-5"/>
</g>
<g class="scatter-point" transform="translate(233.52272,200.17691)">
<rect fill="#409EFF" height="10" width="10" x="-5" y="-5"/>
</g>
<g class="scatter-point" transform="translate(78.06477,200.17691)">
<rect fill="#409EFF" height="10" width="10" x="-5" y="-5"/>
</g>
<g class="scatter-point" transform="translate(210.64432,186.66666)">
<rect fill="#409EFF" height="10" width="10" x="-5" y="-5"/>
</g>
</g>
<g>
<g class="line">
<path d="M0,531.4851 L981.81824,519.4349" fill="none" stroke="#F56C6C" stroke-width="2"/>
<g class="scatter-point" transform="translate(0,531.4851)">
<circle cx="0" cy="0" fill="#F56C6C" r="5"/>
</g>
<g class="scatter-point" transform="translate(981.81824,519.4349)">
<circle cx="0" cy="0" fill="#F56C6C" r="5"/>
</g>
</g>
</g>
<g>
<g class="line">
<path d="M0,506.14877 L981.81824,483.63446" fill="none" stroke="#F56C6C" stroke-width="2"/>
<g class="scatter-point" transform="translate(0,506.14877)">
<circle cx="0" cy="0" fill="#F56C6C" r="5"/>
</g>
<g class="scatter-point" transform="translate(981.81824,483.63446)">
<circle cx="0" cy="0" fill="#F56C6C" r="5"/>
</g>
</g>
</g>
<g>
<g class="line">
<path d="M0,483.63007 L981.81824,452.0565" fill="none" stroke="#F56C6C" stroke-width="2"/>
<g class="scatter-point" transform="translate(0,483.63007)">
<circle cx="0" cy="0" fill="#F56C6C" r="5"/>
</g>
<g class="scatter-point" transform="translate(981.81824,452.0565)">
<circle cx="0" cy="0" fill="#F56C6C" r="5"/>
</g>
</g>
</g>
<g>
<g class="line">
<path d="M0,463.60913 L981.81824,424.2204" fill="none" stroke="#F56C6C" stroke-width="2"/>
<g class="scatter-point" transform="translate(0,463.60913)">
<circle cx="0" cy="0" fill="#F56C6C" r="5"/>
</g>
<g class="scatter-point" transform="translate(981.81824,424.2204)">
<circle cx="0" cy="0" fill="#F56C6C" r="5"/>
</g>
</g>
</g>
<g>
<g class="line">
<path d="M0,445.80237 L981.81824,399.7002" fill="none" stroke="#F56C6C" stroke-width="2"/>
<g class="scatter-point" transform="translate(0,445.80237)">
<circle cx="0" cy="0" fill="#F56C6C" r="5"/>
</g>
<g class="scatter-point" transform="translate(981.81824,399.7002)">
<circle cx="0" cy="0" fill="#F56C6C" r="5"/>
</g>
</g>
</g>
<g>
<g class="line">
<path d="M0,429.95853 L981.81824,378.1183" fill="none" stroke="#F56C6C" stroke-width="2"/>
<g class="scatter-point" transform="translate(0,429.95853)">
<circle cx="0" cy="0" fill="#F56C6C" r="5"/>
</g>
<g class="scatter-point" transform="translate(981.81824,378.1183)">
<circle cx="0" cy="0" fill="#F56C6C" r="5"/>
</g>
</g>
</g>
<g>
<g class="line">
<path d="M0,415.8548 L981.81824,359.14" fill="none" stroke="#F56C6C" stroke-width="2"/>
<g class="scatter-point" transform="translate(0,415.8548)">
<circle cx="0" cy="0" fill="#F56C6C" r="5"/>
</g>
<g class="scatter-point" transform="translate(981.81824,359.14)">
<circle cx="0" cy="0" fill="#F56C6C" r="5"/>
</g>
</g>
</g>
<g>
<g class="line">
<path d="M0,403.29376 L981.81824,342.46872" fill="none" stroke="#F56C6C" stroke-width="2"/>
<g class="scatter-point" transform="translate(0,403.29376)">
<circle cx="0" cy="0" fill="#F56C6C" r="5"/>
</g>
<g class="scatter-point" transform="translate(981.81824,342.46872)">
<circle cx="0" cy="0" fill="#F56C6C" r="5"/>
</g>
</g>
</g>
<g>
<g class="line">
<path d="M0,392.10034 L981.81824,327.84155" fill="none" stroke="#F56C6C" stroke-width="2"/>
<g class="scatter-point" transform="translate(0,392.10034)">
<circle cx="0" cy="0" fill="#F56C6C" r="5"/>
</g>
<g class="scatter-point" transform="translate(981.81824,327.84155)">
<circle cx="0" cy="0" fill="#F56C6C" r="5"/>
</g>
</g>
</g>
<g>
<g class="line">
<path d="M0,382.1195 L981.81824,315.0254" fill="none" stroke="#F56C6C" stroke-width="2"/>
<g class="scatter-point" transform="translate(0,382.1195)">
<circle cx="0" cy="0" fill="#F56C6C" r="5"/>
</g>
<g class="scatter-point" transform="translate(981.81824,315.0254)">
<circle cx="0" cy="0" fill="#F56C6C" r="5"/>
</g>
</g>
</g>
<g>
<g class="line">
<path d="M0,373.2137 L981.81824,303.81378" fill="none" stroke="#F56C6C" stroke-width="2"/>
<g class="scatter-point" transform="translate(0,373.2137)">
<circle cx="0" cy="0" fill="#F56C6C" r="5"/>
</g>
<g class="scatter-point" transform="translate(981.81824,303.81378)">
<circle cx="0" cy="0" fill="#F56C6C" r="5"/>
</g>
</g>
</g>
<g>
<g class="line">
<path d="M0,365.26105 L981.81824,294.0236" fill="none" stroke="#F56C6C" stroke-width="2"/>
<g class="scatter-point" transform="translate(0,365.26105)">
<circle cx="0" cy="0" fill="#F56C6C" r="5"/>
</g>
<g class="scatter-point" transform="translate(981.81824,294.0236)">
<circle cx="0" cy="0" fill="#F56C6C" r="5"/>
</g>
</g>
</g>
<g>
<g class="line">
<path d="M0,358.15353 L981.81824,285.49258" fill="none" stroke="#F56C6C" stroke-width="2"/>
<g class="scatter-point" transform="translate(0,358.15353)">
<circle cx="0" cy="0" fill="#F56C6C" r="5"/>
</g>
<g class="scatter-point" transform="translate(981.81824,285.49258)">
<circle cx="0" cy="0" fill="#F56C6C" r="5"/>
</g>
</g>
</g>
<g>
<g class="line">
<path d="M0,351.7954 L981.81824,278.07693" fill="none" stroke="#F56C6C" stroke-width="2"/>
<g class="scatter-point" transform="translate(0,351.7954)">
<circle cx="0" cy="0" fill="#F56C6C" r="5"/>
</g>
<g class="scatter-point" transform="translate(981.81824,278.07693)">
<circle cx="0" cy="0" fill="#F56C6C" r="5"/>
</g>
</g>
</g>
<g>
<g class="line">
<path d="M0,346.1018 L981.81824,271.64914" fill="none" stroke="#F56C6C" stroke-width="2"/>
<g class="scatter-point" transform="translate(0,346.1018)">
<circle cx="0" cy="0" fill="#F56C6C" r="5"/>
</g>
<g class="scatter-point" transform="translate(981.81824,271.64914)">
<circle cx="0" cy="0" fill="#F56C6C" r="5"/>
</g>
</g>
</g>
<g>
<g class="line">
<path d="M0,340.9975 L981.81824,266.09622" fill="none" stroke="#F56C6C" stroke-width="2"/>
<g class="scatter-point" transform="translate(0,340.9975)">
<circle cx="0" cy="0" fill="#F56C6C" r="5"/>
</g>
<g class="scatter-point" transform="translate(981.81824,266.09622)">
<circle cx="0" cy="0" fill="#F56C6C" r="5"/>
</g>
</g>
</g>
<g>
<g class="line">
<path d="M0,336.41577 L981.81824,261.31805" fill="none" stroke="#F56C6C" stroke-width="2"/>
<g class="scatter-point" transform="translate(0,336.41577)">
<circle cx="0" cy="0" fill="#F56C6C" r="5"/>
</g>
<g class="scatter-point" transform="translate(981.81824,261.31805)">
<circle cx="0" cy="0" fill="#F56C6C" r="5"/>
</g>
</g>
</g>
<g>
<g class="line">
<path d="M0,332.29755 L981.81824,257.22592" fill="none" stroke="#F56C6C" stroke-width="2"/>
<g class="scatter-point" transform="translate(0,332.29755)">
<circle cx="0" cy="0" fill="#F56C6C" r="5"/>
</g>
<g class="scatter-point" transform="translate(981.81824,257.22592)">
<circle cx="0" cy="0" fill="#F56C6C" r="5"/>
</g>
</g>
</g>
<g>
<g class="line">
<path d="M0,328.59045 L981.81824,253.74109" fill="none" stroke="#F56C6C" stroke-width="2"/>
<g class="scatter-point" transform="translate(0,328.59045)">
<circle cx="0" cy="0" fill="#F56C6C" r="5"/>
</g>
<g class="scatter-point" transform="translate(981.81824,253.74109)">
<circle cx="0" cy="0" fill="#F56C6C" r="5"/>
</g>
</g>
</g>
<g>
<g class="line">
<path d="M0,325.24805 L981.81824,250.79385" fill="none" stroke="#F56C6C" stroke-width="2"/>
<g class="scatter-point" transform="translate(0,325.24805)">
<circle cx="0" cy="0" fill="#F56C6C" r="5"/>
</g>
<g class="scatter-point" transform="translate(981.81824,250.79385)">
<circle cx="0" cy="0" fill="#F56C6C" r="5"/>
</g>
</g>
</g>
<g>
<g class="line">
<path d="M0,319.49725 L981.81824,246.2721" fill="none" stroke="#F56C6C" stroke-width="2"/>
<g class="scatter-point" transform="translate(0,319.49725)">
<circle cx="0" cy="0" fill="#F56C6C" r="5"/>
</g>
<g class="scatter-point" transform="translate(981.81824,246.2721)">
<circle cx="0" cy="0" fill="#F56C6C" r="5"/>
</g>
</g>
</g>
<g>
<g class="line">
<path d="M0,292.7439 L981.81824,248.77878" fill="none" stroke="#F56C6C" stroke-width="2"/>
<g class="scatter-point" transform="translate(0,292.7439)">
<circle cx="0" cy="0" fill="#F56C6C" r="5"/>
</g>
<g class="scatter-point" transform="translate(981.81824,248.77878)">
<circle cx="0" cy="0" fill="#F56C6C" r="5"/>
</g>
</g>
</g>
<g>
<g class="line">
<path d="M0,282.05222 L981.81824,270.99072" fill="none" stroke="#F56C6C" stroke-width="2"/>
<g class="scatter-point" transform="translate(0,282.05222)">
<circle cx="0" cy="0" fill="#F56C6C" r="5"/>
</g>
<g class="scatter-point" transform="translate(981.81824,270.99072)">
<circle cx="0" cy="0" fill="#F56C6C" r="5"/>
</g>
</g>
</g>
<g>
<g class="line">
<path d="M0,273.40442 L981.81824,292.3042" fill="none" stroke="#F56C6C" stroke-width="2"/>
<g class="scatter-point" transform="translate(0,273.40442)">
<circle cx="0" cy="0" fill="#F56C6C" r="5"/>
</g>
<g class="scatter-point" transform="translate(981.81824,292.3042)">
<circle cx="0" cy="0" fill="#F56C6C" r="5"/>
</g>
</g>
</g>
<g>
<g class="line">
<path d="M0,265.71924 L981.81824,311.50623" fill="none" stroke="#F56C6C" stroke-width="2"/>
<g class="scatter-point" transform="translate(0,265.71924)">
<circle cx="0" cy="0" fill="#F56C6C" r="5"/>
</g>
<g class="scatter-point" transform="translate(981.81824,311.50623)">
<circle cx="0" cy="0" fill="#F56C6C" r="5"/>
</g>
</g>
</g>
<g>
<g class="line">
<path d="M0,258.8357 L981.81824,328.72388" fill="none" stroke="#F56C6C" stroke-width="2"/>
<g class="scatter-point" transform="translate(0,258.8357)">
<circle cx="0" cy="0" fill="#F56C6C" r="5"/>
</g>
<g class="scatter-point" transform="translate(981.81824,328.72388)">
<circle cx="0" cy="0" fill="#F56C6C" r="5"/>
</g>
</g>
</g>
<g>
<g class="line">
<path d="M0,252.66632 L981.81824,344.15646" fill="none" stroke="#F56C6C" stroke-width="2"/>
<g class="scatter-point" transform="translate(0,252.66632)">
<circle cx="0" cy="0" fill="#F56C6C" r="5"/>
</g>
<g class="scatter-point" transform="translate(981.81824,344.15646)">
<circle cx="0" cy="0" fill="#F56C6C" r="5"/>
</g>
</g>
</g>
<g>
<g class="line">
<path d="M0,247.13678 L981.81824,357.98865" fill="none" stroke="#F56C6C" stroke-width="2"/>
<g class="scatter-point" transform="translate(0,247.13678)">
<circle cx="0" cy="0" fill="#F56C6C" r="5"/>
</g>
<g class="scatter-point" transform="translate(981.81824,357.98865)">
<circle cx="0" cy="0" fill="#F56C6C" r="5"/>
</g>
</g>
</g>
<g>
<g class="line">
<path d="M0,242.18066 L981.81824,370.38635" fill="none" stroke="#F56C6C" stroke-width="2"/>
<g class="scatter-point" transform="translate(0,242.18066)">
<circle cx="0" cy="0" fill="#F56C6C" r="5"/>
</g>
<g class="scatter-point" transform="translate(981.81824,370.38635)">
<circle cx="0" cy="0" fill="#F56C6C" r="5"/>
</g>
</g>
</g>
<g>
<g class="line">
<path d="M0,237.73856 L981.81824,381.49835" fill="none" stroke="#F56C6C" stroke-width="2"/>
<g class="scatter-point" transform="translate(0,237.73856)">
<circle cx="0" cy="0" fill="#F56C6C" r="5"/>
</g>
<g class="scatter-point" transform="translate(981.81824,381.49835)">
<circle cx="0" cy="0" fill="#F56C6C" r="5"/>
</g>
</g>
</g>
<g>
<g class="line">
<path d="M0,233.75708 L981.81824,391.45795" fill="none" stroke="#F56C6C" stroke-width="2"/>
<g class="scatter-point" transform="translate(0,233.75708)">
<circle cx="0" cy="0" fill="#F56C6C" r="5"/>
</g>
<g class="scatter-point" transform="translate(981.81824,391.45795)">
<circle cx="0" cy="0" fill="#F56C6C" r="5"/>
</g>
</g>
</g>
<g>
<g class="line">
<path d="M0,230.1885 L981.81824,400.38474" fill="none" stroke="#F56C6C" stroke-width="2"/>
<g class="scatter-point" transform="translate(0,230.1885)">
<circle cx="0" cy="0" fill="#F56C6C" r="5"/>
</g>
<g class="scatter-point" transform="translate(981.81824,400.38474)">
<circle cx="0" cy="0" fill="#F56C6C" r="5"/>
</g>
</g>
</g>
<g>
<g class="line">
<path d="M0,226.99005 L981.81824,408.38574" fill="none" stroke="#F56C6C" stroke-width="2"/>
<g class="scatter-point" transform="translate(0,226.99005)">
<circle cx="0" cy="0" fill="#F56C6C" r="5"/>
</g>
<g class="scatter-point" transform="translate(981.81824,408.38574)">
<circle cx="0" cy="0" fill="#F56C6C" r="5"/>
</g>
</g>
</g>
<g>
<g class="line">
<path d="M0,224.12329 L981.81824,415.557" fill="none" stroke="#F56C6C" stroke-width="2"/>
<g class="scatter-point" transform="translate(0,224.12329)">
<circle cx="0" cy="0" fill="#F56C6C" r="5"/>
</g>
<g class="scatter-point" transform="translate(981.81824,415.557)">
<circle cx="0" cy="0" fill="#F56C6C" r="5"/>
</g>
</g>
</g>
<g>
<g class="line">
<path d="M0,221.5538 L981.81824,421.98456" fill="none" stroke="#F56C6C" stroke-width="2"/>
<g class="scatter-point" transform="translate(0,221.5538)">
<circle cx="0" cy="0" fill="#F56C6C" r="5"/>
</g>
<g class="scatter-point" transform="translate(981.81824,421.98456)">
<circle cx="0" cy="0" fill="#F56C6C" r="5"/>
</g>
</g>
</g>
<g>
<g class="line">
<path d="M0,219.2508 L981.81824,427.74554" fill="none" stroke="#F56C6C" stroke-width="2"/>
<g class="scatter-point" transform="translate(0,219.2508)">
<circle cx="0" cy="0" fill="#F56C6C" r="5"/>
</g>
<g class="scatter-point" transform="translate(981.81824,427.74554)">
<circle cx="0" cy="0" fill="#F56C6C" r="5"/>
</g>
</g>
</g>
<g>
<g class="line">
<path d="M0,217.18661 L981.81824,432.90912" fill="none" stroke="#F56C6C" stroke-width="2"/>
<g class="scatter-point" transform="translate(0,217.18661)">
<circle cx="0" cy="0" fill="#F56C6C" r="5"/>
</g>
<g class="scatter-point" transform="translate(981.81824,432.90912)">
<circle cx="0" cy="0" fill="#F56C6C" r="5"/>
</g>
</g>
</g>
<g>
<g class="line">
<path d="M0,215.33646 L981.81824,437.53717" fill="none" stroke="#F56C6C" stroke-width="2"/>
<g class="scatter-point" transform="translate(0,215.33646)">
<circle cx="0" cy="0" fill="#F56C6C" r="5"/>
</g>
<g class="scatter-point" transform="translate(981.81824,437.53717)">
<circle cx="0" cy="0" fill="#F56C6C" r="5"/>
</g>
</g>
</g>
<g>
<g class="line">
<path d="M0,213.67825 L981.81824,441.68527" fill="none" stroke="#F56C6C" stroke-width="2"/>
<g class="scatter-point" transform="translate(0,213.67825)">
<circle cx="0" cy="0" fill="#F56C6C" r="5"/>
</g>
<g class="scatter-point" transform="translate(981.81824,441.68527)">
<circle cx="0" cy="0" fill="#F56C6C" r="5"/>
</g>
</g>
</g>
<g>
<g class="line">
<path d="M0,212.19199 L981.81824,445.4032" fill="none" stroke="#F56C6C" stroke-width="2"/>
<g class="scatter-point" transform="translate(0,212.19199)">
<circle cx="0" cy="0" fill="#F56C6C" r="5"/>
</g>
<g class="scatter-point" transform="translate(981.81824,445.4032)">
<circle cx="0" cy="0" fill="#F56C6C" r="5"/>
</g>
</g>
</g>
<g>
<g class="line">
<path d="M0,210.85983 L981.81824,448.73557" fill="none" stroke="#F56C6C" stroke-width="2"/>
<g class="scatter-point" transform="translate(0,210.85983)">
<circle cx="0" cy="0" fill="#F56C6C" r="5"/>
</g>
<g class="scatter-point" transform="translate(981.81824,448.73557)">
<circle cx="0" cy="0" fill="#F56C6C" r="5"/>
</g>
</g>
</g>
<g>
<g class="line">
<path d="M0,209.6658 L981.81824,451.72235" fill="none" stroke="#F56C6C" stroke-width="2"/>
<g class="scatter-point" transform="translate(0,209.6658)">
<circle cx="0" cy="0" fill="#F56C6C" r="5"/>
</g>
<g class="scatter-point" transform="translate(981.81824,451.72235)">
<circle cx="0" cy="0" fill="#F56C6C" r="5"/>
</g>
</g>
</g>
<g>
<g class="line">
<path d="M0,208.59567 L981.81824,454.39935" fill="none" stroke="#F56C6C" stroke-width="2"/>
<g class="scatter-point" transform="translate(0,208.59567)">
<circle cx="0" cy="0" fill="#F56C6C" r="5"/>
</g>
<g class="scatter-point" transform="translate(981.81824,454.39935)">
<circle cx="0" cy="0" fill="#F56C6C" r="5"/>
</g>
</g>
</g>
<g>
<g class="line">
<path d="M0,207.63647 L981.81824,456.79877" fill="none" stroke="#F56C6C" stroke-width="2"/>
<g class="scatter-point" transform="translate(0,207.63647)">
<circle cx="0" cy="0" fill="#F56C6C" r="5"/>
</g>
<g class="scatter-point" transform="translate(981.81824,456.79877)">
<circle cx="0" cy="0" fill="#F56C6C" r="5"/>
</g>
</g>
</g>
<g>
<g class="line">
<path d="M0,206.77676 L981.81824,458.94934" fill="none" stroke="#F56C6C" stroke-width="2"/>
<g class="scatter-point" transform="translate(0,206.77676)">
<circle cx="0" cy="0" fill="#F56C6C" r="5"/>
</g>
<g class="scatter-point" transform="translate(981.81824,458.94934)">
<circle cx="0" cy="0" fill="#F56C6C" r="5"/>
</g>
</g>
</g>
<g>
<g class="line">
<path d="M0,206.00623 L981.81824,460.8769" fill="none" stroke="#F56C6C" stroke-width="2"/>
<g class="scatter-point" transform="translate(0,206.00623)">
<circle cx="0" cy="0" fill="#F56C6C" r="5"/>
</g>
<g class="scatter-point" transform="translate(981.81824,460.8769)">
<circle cx="0" cy="0" fill="#F56C6C" r="5"/>
</g>
</g>
</g>
<g>
<g class="line">
<path d="M0,205.31558 L981.81824,462.60455" fill="none" stroke="#F56C6C" stroke-width="2"/>
<g class="scatter-point" transform="translate(0,205.31558)">
<circle cx="0" cy="0" fill="#F56C6C" r="5"/>
</g>
<g class="scatter-point" transform="translate(981.81824,462.60455)">
<circle cx="0" cy="0" fill="#F56C6C" r="5"/>
</g>
</g>
</g>
<g>
<g class="line">
<path d="M0,204.69653 L981.81824,464.15305" fill="none" stroke="#F56C6C" stroke-width="2"/>
<g class="scatter-point" transform="translate(0,204.69653)">
<circle cx="0" cy="0" fill="#F56C6C" r="5"/>
</g>
<g class="scatter-point" transform="translate(981.81824,464.15305)">
<circle cx="0" cy="0" fill="#F56C6C" r="5"/>
</g>
</g>
</g>
<g>
<g class="line">
<path d="M0,204.14172 L981.81824,465.54095" fill="none" stroke="#F56C6C" stroke-width="2"/>
<g class="scatter-point" transform="translate(0,204.14172)">
<circle cx="0" cy="0" fill="#F56C6C" r="5"/>
</g>
<g class="scatter-point" transform="translate(981.81824,465.54095)">
<circle cx="0" cy="0" fill="#F56C6C" r="5"/>
</g>
</g>
</g>
<g>
<g class="line">
<path d="M0,203.64441 L981.81824,466.7849" fill="none" stroke="#F56C6C" stroke-width="2"/>
<g class="scatter-point" transform="translate(0,203.64441)">
<circle cx="0" cy="0" fill="#F56C6C" r="5"/>
</g>
<g class="scatter-point" transform="translate(981.81824,466.7849)">
<circle cx="0" cy="0" fill="#F56C6C" r="5"/>
</g>
</g>
</g>
<g>
<g class="line">
<path d="M0,203.1987 L981.81824,467.8999" fill="none" stroke="#F56C6C" stroke-width="2"/>
<g class="scatter-point" transform="translate(0,203.1987)">
<circle cx="0" cy="0" fill="#F56C6C" r="5"/>
</g>
<g class="scatter-point" transform="translate(981.81824,467.8999)">
<circle cx="0" cy="0" fill="#F56C6C" r="5"/>
</g>
</g>
</g>
</g>
</g>
</svg>