<svg height="700" viewBox="0 0 1000 700" width="1000" xmlns="http://www.w3.org/2000/svg">
<g class="g-chart">
<g class="g-title" transform="translate(500,25)">
<text dy=".35em" fill="#777" font-family="sans-serif" font-size="24px" text-anchor="middle" x="0" y="0">
Learning curve
</text>
</g>
<g class="x-axis" transform="translate(60,650)">
<line shape-rendering="crispEdges" stroke="#bbbbbb" stroke-width="1" x1="0" x2="900" y1="0" y2="0"/>
<g class="tick" transform="translate(0,0)">
<line shape-rendering="crispEdges" stroke="#bbbbbb" stroke-width="1px" x1="0" x2="0" y1="0" y2="6"/>
<text dy=".35em" fill="#777" font-family="sans-serif" font-size="12px" text-anchor="middle" transform="rotate(0,0,16)" x="0" y="16">
0
</text>
</g>
<g class="tick" transform="translate(87.50607,0)">
<line shape-rendering="crispEdges" stroke="#bbbbbb" stroke-width="1px" x1="0" x2="0" y1="0" y2="6"/>
<text dy=".35em" fill="#777" font-family="sans-serif" font-size="12px" text-anchor="middle" transform="rotate(0,0,16)" x="0" y="16">
2000
</text>
</g>
<g class="tick" transform="translate(175.01215,0)">
<line shape-rendering="crispEdges" stroke="#bbbbbb" stroke-width="1px" x1="0" x2="0" y1="0" y2="6"/>
<text dy=".35em" fill="#777" font-family="sans-serif" font-size="12px" text-anchor="middle" transform="rotate(0,0,16)" x="0" y="16">
4000
</text>
</g>
<g class="tick" transform="translate(262.51822,0)">
<line shape-rendering="crispEdges" stroke="#bbbbbb" stroke-width="1px" x1="0" x2="0" y1="0" y2="6"/>
<text dy=".35em" fill="#777" font-family="sans-serif" font-size="12px" text-anchor="middle" transform="rotate(0,0,16)" x="0" y="16">
6000
</text>
</g>
<g class="tick" transform="translate(350.0243,0)">
<line shape-rendering="crispEdges" stroke="#bbbbbb" stroke-width="1px" x1="0" x2="0" y1="0" y2="6"/>
<text dy=".35em" fill="#777" font-family="sans-serif" font-size="12px" text-anchor="middle" transform="rotate(0,0,16)" x="0" y="16">
8000
</text>
</g>
<g class="tick" transform="translate(437.5304,0)">
<line shape-rendering="crispEdges" stroke="#bbbbbb" stroke-width="1px" x1="0" x2="0" y1="0" y2="6"/>
<text dy=".35em" fill="#777" font-family="sans-serif" font-size="12px" text-anchor="middle" transform="rotate(0,0,16)" x="0" y="16">
10000
</text>
</g>
<g class="tick" transform="translate(525.03644,0)">
<line shape-rendering="crispEdges" stroke="#bbbbbb" stroke-width="1px" x1="0" x2="0" y1="0" y2="6"/>
<text dy=".35em" fill="#777" font-family="sans-serif" font-size="12px" text-anchor="middle" transform="rotate(0,0,16)" x="0" y="16">
12000
</text>
</g>
<g class="tick" transform="translate(612.54254,0)">
<line shape-rendering="crispEdges" stroke="#bbbbbb" stroke-width="1px" x1="0" x2="0" y1="0" y2="6"/>
<text dy=".35em" fill="#777" font-family="sans-serif" font-size="12px" text-anchor="middle" transform="rotate(0,0,16)" x="0" y="16">
14000
</text>
</g>
<g class="tick" transform="translate(700.0486,0)">
<line shape-rendering="crispEdges" stroke="#bbbbbb" stroke-width="1px" x1="0" x2="0" y1="0" y2="6"/>
<text dy=".35em" fill="#777" font-family="sans-serif" font-size="12px" text-anchor="middle" transform="rotate(0,0,16)" x="0" y="16">
16000
</text>
</g>
<g class="tick" transform="translate(787.5547,0)">
<line shape-rendering="crispEdges" stroke="#bbbbbb" stroke-width="1px" x1="0" x2="0" y1="0" y2="6"/>
<text dy=".35em" fill="#777" font-family="sans-serif" font-size="12px" text-anchor="middle" transform="rotate(0,0,16)" x="0" y="16">
18000
</text>
</g>
<g class="tick" transform="translate(875.0608,0)">
<line shape-rendering="crispEdges" stroke="#bbbbbb" stroke-width="1px" x1="0" x2="0" y1="0" y2="6"/>
<text dy=".35em" fill="#777" font-family="sans-serif" font-size="12px" text-anchor="middle" transform="rotate(0,0,16)" x="0" y="16">
20000
</text>
</g>
<text fill="#777" font-family="sans-serif" font-size="14px" text-anchor="middle" transform="rotate(0)" x="450" y="42">
Iteration
</text>
</g>
<g class="y-axis" transform="translate(60,90)">
<line shape-rendering="crispEdges" stroke="#bbbbbb" stroke-width="1" x1="0" x2="0" y1="0" y2="560"/>
<g class="tick" transform="translate(0,524.4321)">
<line shape-rendering="crispEdges" stroke="#bbbbbb" stroke-width="1px" x1="0" x2="-6" y1="0" y2="0"/>
<text dy=".35em" fill="#777" font-family="sans-serif" font-size="12px" text-anchor="end" transform="rotate(0,-12,0)" x="-12" y="0">
2
</text>
</g>
<g class="tick" transform="translate(0,488.86243)">
<line shape-rendering="crispEdges" stroke="#bbbbbb" stroke-width="1px" x1="0" x2="-6" y1="0" y2="0"/>
<text dy=".35em" fill="#777" font-family="sans-serif" font-size="12px" text-anchor="end" transform="rotate(0,-12,0)" x="-12" y="0">
4
</text>
</g>
<g class="tick" transform="translate(0,453.29272)">
<line shape-rendering="crispEdges" stroke="#bbbbbb" stroke-width="1px" x1="0" x2="-6" y1="0" y2="0"/>
<text dy=".35em" fill="#777" font-family="sans-serif" font-size="12px" text-anchor="end" transform="rotate(0,-12,0)" x="-12" y="0">
6
</text>
</g>
<g class="tick" transform="translate(0,417.72308)">
<line shape-rendering="crispEdges" stroke="#bbbbbb" stroke-width="1px" x1="0" x2="-6" y1="0" y2="0"/>
<text dy=".35em" fill="#777" font-family="sans-serif" font-size="12px" text-anchor="end" transform="rotate(0,-12,0)" x="-12" y="0">
8
</text>
</g>
<g class="tick" transform="translate(0,382.15338)">
<line shape-rendering="crispEdges" stroke="#bbbbbb" stroke-width="1px" x1="0" x2="-6" y1="0" y2="0"/>
<text dy=".35em" fill="#777" font-family="sans-serif" font-size="12px" text-anchor="end" transform="rotate(0,-12,0)" x="-12" y="0">
10
</text>
</g>
<g class="tick" transform="translate(0,346.58368)">
<line shape-rendering="crispEdges" stroke="#bbbbbb" stroke-width="1px" x1="0" x2="-6" y1="0" y2="0"/>
<text dy=".35em" fill="#777" font-family="sans-serif" font-size="12px" text-anchor="end" transform="rotate(0,-12,0)" x="-12" y="0">
12
</text>
</g>
<g class="tick" transform="translate(0,311.014)">
<line shape-rendering="crispEdges" stroke="#bbbbbb" stroke-width="1px" x1="0" x2="-6" y1="0" y2="0"/>
<text dy=".35em" fill="#777" font-family="sans-serif" font-size="12px" text-anchor="end" transform="rotate(0,-12,0)" x="-12" y="0">
14
</text>
</g>
<g class="tick" transform="translate(0,275.44434)">
<line shape-rendering="crispEdges" stroke="#bbbbbb" stroke-width="1px" x1="0" x2="-6" y1="0" y2="0"/>
<text dy=".35em" fill="#777" font-family="sans-serif" font-size="12px" text-anchor="end" transform="rotate(0,-12,0)" x="-12" y="0">
16
</text>
</g>
<g class="tick" transform="translate(0,239.8746)">
<line shape-rendering="crispEdges" stroke="#bbbbbb" stroke-width="1px" x1="0" x2="-6" y1="0" y2="0"/>
<text dy=".35em" fill="#777" font-family="sans-serif" font-size="12px" text-anchor="end" transform="rotate(0,-12,0)" x="-12" y="0">
18
</text>
</g>
<g class="tick" transform="translate(0,204.30493)">
<line shape-rendering="crispEdges" stroke="#bbbbbb" stroke-width="1px" x1="0" x2="-6" y1="0" y2="0"/>
<text dy=".35em" fill="#777" font-family="sans-serif" font-size="12px" text-anchor="end" transform="rotate(0,-12,0)" x="-12" y="0">
20
</text>
</g>
<g class="tick" transform="translate(0,168.73523)">
<line shape-rendering="crispEdges" stroke="#bbbbbb" stroke-width="1px" x1="0" x2="-6" y1="0" y2="0"/>
<text dy=".35em" fill="#777" font-family="sans-serif" font-size="12px" text-anchor="end" transform="rotate(0,-12,0)" x="-12" y="0">
22
</text>
</g>
<g class="tick" transform="translate(0,133.16556)">
<line shape-rendering="crispEdges" stroke="#bbbbbb" stroke-width="1px" x1="0" x2="-6" y1="0" y2="0"/>
<text dy=".35em" fill="#777" font-family="sans-serif" font-size="12px" text-anchor="end" transform="rotate(0,-12,0)" x="-12" y="0">
24
</text>
</g>
<g class="tick" transform="translate(0,97.595856)">
<line shape-rendering="crispEdges" stroke="#bbbbbb" stroke-width="1px" x1="0" x2="-6" y1="0" y2="0"/>
<text dy=".35em" fill="#777" font-family="sans-serif" font-size="12px" text-anchor="end" transform="rotate(0,-12,0)" x="-12" y="0">
26
</text>
</g>
<g class="tick" transform="translate(0,62.026184)">
<line shape-rendering="crispEdges" stroke="#bbbbbb" stroke-width="1px" x1="0" x2="-6" y1="0" y2="0"/>
<text dy=".35em" fill="#777" font-family="sans-serif" font-size="12px" text-anchor="end" transform="rotate(0,-12,0)" x="-12" y="0">
28
</text>
</g>
<g class="tick" transform="translate(0,26.456543)">
<line shape-rendering="crispEdges" stroke="#bbbbbb" stroke-width="1px" x1="0" x2="-6" y1="0" y2="0"/>
<text dy=".35em" fill="#777" font-family="sans-serif" font-size="12px" text-anchor="end" transform="rotate(0,-12,0)" x="-12" y="0">
30
</text>
</g>
<text fill="#777" font-family="sans-serif" font-size="14px" text-anchor="middle" transform="rotate(-90)" x="-280" y="-42">
Learning
</text>
</g>
<g class="g-view" transform="translate(60,90)">
<g>
<g class="line">
<path d="M0,186.6673 L4.375304,428.69244 L8.750608,505.66016 L13.125911,530.5585 L17.501217,539.01025 L21.876518,542.24756 L26.251822,543.81287 L30.627125,544.82446 L35.002434,545.6361 L39.377735,546.36066 L43.753036,547.0348 L48.12834,547.67126 L52.503643,548.2751 L56.878952,548.8489 L61.25425,549.39453 L65.629555,549.9134 L70.00487,550.40686 L74.380165,550.8762 L78.75547,551.3226 L83.13077,551.74713 L87.50607,552.1509 L91.881386,552.5349 L96.25668,552.90015 L100.63199,553.24756 L105.007286,553.57794 L109.3826,553.89215 L113.757904,554.191 L118.1332,554.4752 L122.5085,554.74554 L126.88381,555.0027 L131.25911,555.2472 L135.63441,555.4798 L140.00974,555.701 L144.38503,555.9113 L148.76033,556.11145 L153.13564,556.3017 L157.51094,556.4827 L161.88625,556.65485 L166.26154,556.81854 L170.63686,556.97424 L175.01215,557.1224 L179.38745,557.2632 L183.76277,557.39716 L188.13806,557.5246 L192.51337,557.64575 L196.88867,557.761 L201.26398,557.8706 L205.63928,557.97485 L210.01457,558.074 L214.3899,558.1683 L218.7652,558.258 L223.14049,558.34326 L227.51581,558.42444 L231.8911,558.5016 L236.2664,558.57495 L240.64171,558.6448 L245.017,558.7111 L249.39233,558.77423 L253.76762,558.8343 L258.14294,558.8914 L262.51822,558.94574 L266.89352,558.9974 L271.26883,559.0465 L275.64413,559.09326 L280.01947,559.1377 L284.39474,559.17993 L288.77005,559.22015 L293.14536,559.25836 L297.52066,559.29474 L301.89597,559.32935 L306.27127,559.36224 L310.64658,559.3935 L315.02188,559.4233 L319.3972,559.4516 L323.7725,559.4785 L328.14777,559.5041 L332.52307,559.52844 L336.8984,559.5516 L341.2737,559.5736 L345.64902,559.59454 L350.0243,559.6145 L354.3996,559.6334 L358.7749,559.6514 L363.1502,559.6686 L367.52554,559.6849 L371.90082,559.7004 L376.27612,559.71515 L380.65143,559.7291 L385.02673,559.7425 L389.40204,559.7552 L393.77734,559.7672 L398.15265,559.7787 L402.52795,559.7896 L406.90326,559.8 L411.27856,559.8099 L415.65387,559.8193 L420.02914,559.8282 L424.40448,559.8367 L428.7798,559.8448 L433.1551,559.8524 L437.5304,559.85974 L441.90567,559.8667 L446.28098,559.8733 L450.65628,559.8796 L455.03162,559.88556 L459.4069,559.89124 L463.7822,559.89667 L468.15753,559.9018 L472.5328,559.9067 L476.90814,559.9114 L481.28342,559.9158 L485.65872,559.92 L490.034,559.924 L494.40933,559.9278 L498.78467,559.9314 L503.15994,559.9349 L507.53525,559.9381 L511.91052,559.9412 L516.2859,559.9442 L520.66113,559.947 L525.03644,559.9497 L529.4118,559.9523 L533.78705,559.95465 L538.1624,559.957 L542.53766,559.95917 L546.91296,559.96124 L551.28827,559.96326 L555.6636,559.96515 L560.03894,559.9669 L564.4142,559.9686 L568.7895,559.9703 L573.1648,559.9718 L577.5401,559.97327 L581.9154,559.9747 L586.2907,559.976 L590.666,559.97723 L595.0413,559.97845 L599.4166,559.9796 L603.79193,559.9807 L608.16724,559.9817 L612.54254,559.9827 L616.91785,559.98364 L621.29315,559.9845 L625.66846,559.98535 L630.04376,559.98615 L634.419,559.98694 L638.7944,559.9877 L643.1697,559.98834 L647.545,559.989 L651.9203,559.9896 L656.29553,559.99023 L660.6709,559.9908 L665.04614,559.99133 L669.4215,559.9919 L673.7968,559.9923 L678.17206,559.9928 L682.5474,559.9932 L686.92267,559.99365 L691.29803,559.9941 L695.6733,559.99445 L700.0486,559.9948 L704.42395,559.9951 L708.7992,559.9955 L713.17456,559.9958 L717.5498,559.9961 L721.9251,559.99634 L726.3004,559.99664 L730.6757,559.9969 L735.0511,559.99713 L739.42633,559.9974 L743.80164,559.99756 L748.17694,559.9978 L752.55225,559.998 L756.92755,559.99817 L761.30286,559.99835 L765.67816,559.99854 L770.05347,559.99866 L774.4288,559.99884 L778.8041,559.99896 L783.1794,559.9991 L787.5547,559.99927 L791.93,559.9994 L796.3053,559.9995 L800.6806,559.9996 L805.0559,559.9997 L809.4312,559.9998 L813.8065,559.9999 L818.1818,560" fill="none" stroke="#F56C6C" stroke-width="2"/>
<g class="scatter-point" transform="translate(0,186.6673)">
<circle cx="0" cy="0" fill="#F56C6C" r="5"/>
</g>
<g class="scatter-point" transform="translate(4.375304,428.69244)">
<circle cx="0" cy="0" fill="#F56C6C" r="5"/>
</g>
<g class="scatter-point" transform="translate(8.750608,505.66016)">
<circle cx="0" cy="0" fill="#F56C6C" r="5"/>
</g>
<g class="scatter-point" transform="translate(13.125911,530.5585)">
<circle cx="0" cy="0" fill="#F56C6C" r="5"/>
</g>
<g class="scatter-point" transform="translate(17.501217,539.01025)">
<circle cx="0" cy="0" fill="#F56C6C" r="5"/>
</g>
<g class="scatter-point" transform="translate(21.876518,542.24756)">
<circle cx="0" cy="0" fill="#F56C6C" r="5"/>
</g>
<g class="scatter-point" transform="translate(26.251822,543.81287)">
<circle cx="0" cy="0" fill="#F56C6C" r="5"/>
</g>
<g class="scatter-point" transform="translate(30.627125,544.82446)">
<circle cx="0" cy="0" fill="#F56C6C" r="5"/>
</g>
<g class="scatter-point" transform="translate(35.002434,545.6361)">
<circle cx="0" cy="0" fill="#F56C6C" r="5"/>
</g>
<g class="scatter-point" transform="translate(39.377735,546.36066)">
<circle cx="0" cy="0" fill="#F56C6C" r="5"/>
</g>
<g class="scatter-point" transform="translate(43.753036,547.0348)">
<circle cx="0" cy="0" fill="#F56C6C" r="5"/>
</g>
<g class="scatter-point" transform="translate(48.12834,547.67126)">
<circle cx="0" cy="0" fill="#F56C6C" r="5"/>
</g>
<g class="scatter-point" transform="translate(52.503643,548.2751)">
<circle cx="0" cy="0" fill="#F56C6C" r="5"/>
</g>
<g class="scatter-point" transform="translate(56.878952,548.8489)">
<circle cx="0" cy="0" fill="#F56C6C" r="5"/>
</g>
<g class="scatter-point" transform="translate(61.25425,549.39453)">
<circle cx="0" cy="0" fill="#F56C6C" r="5"/>
</g>
<g class="scatter-point" transform="translate(65.629555,549.9134)">
<circle cx="0" cy="0" fill="#F56C6C" r="5"/>
</g>
<g class="scatter-point" transform="translate(70.00487,550.40686)">
<circle cx="0" cy="0" fill="#F56C6C" r="5"/>
</g>
<g class="scatter-point" transform="translate(74.380165,550.8762)">
<circle cx="0" cy="0" fill="#F56C6C" r="5"/>
</g>
<g class="scatter-point" transform="translate(78.75547,551.3226)">
<circle cx="0" cy="0" fill="#F56C6C" r="5"/>
</g>
<g class="scatter-point" transform="translate(83.13077,551.74713)">
<circle cx="0" cy="0" fill="#F56C6C" r="5"/>
</g>
<g class="scatter-point" transform="translate(87.50607,552.1509)">
<circle cx="0" cy="0" fill="#F56C6C" r="5"/>
</g>
<g class="scatter-point" transform="translate(91.881386,552.5349)">
<circle cx="0" cy="0" fill="#F56C6C" r="5"/>
</g>
<g class="scatter-point" transform="translate(96.25668,552.90015)">
<circle cx="0" cy="0" fill="#F56C6C" r="5"/>
</g>
<g class="scatter-point" transform="translate(100.63199,553.24756)">
<circle cx="0" cy="0" fill="#F56C6C" r="5"/>
</g>
<g class="scatter-point" transform="translate(105.007286,553.57794)">
<circle cx="0" cy="0" fill="#F56C6C" r="5"/>
</g>
<g class="scatter-point" transform="translate(109.3826,553.89215)">
<circle cx="0" cy="0" fill="#F56C6C" r="5"/>
</g>
<g class="scatter-point" transform="translate(113.757904,554.191)">
<circle cx="0" cy="0" fill="#F56C6C" r="5"/>
</g>
<g class="scatter-point" transform="translate(118.1332,554.4752)">
<circle cx="0" cy="0" fill="#F56C6C" r="5"/>
</g>
<g class="scatter-point" transform="translate(122.5085,554.74554)">
<circle cx="0" cy="0" fill="#F56C6C" r="5"/>
</g>
<g class="scatter-point" transform="translate(126.88381,555.0027)">
<circle cx="0" cy="0" fill="#F56C6C" r="5"/>
</g>
<g class="scatter-point" transform="translate(131.25911,555.2472)">
<circle cx="0" cy="0" fill="#F56C6C" r="5"/>
</g>
<g class="scatter-point" transform="translate(135.63441,555.4798)">
<circle cx="0" cy="0" fill="#F56C6C" r="5"/>
</g>
<g class="scatter-point" transform="translate(140.00974,555.701)">
<circle cx="0" cy="0" fill="#F56C6C" r="5"/>
</g>
<g class="scatter-point" transform="translate(144.38503,555.9113)">
<circle cx="0" cy="0" fill="#F56C6C" r="5"/>
</g>
<g class="scatter-point" transform="translate(148.76033,556.11145)">
<circle cx="0" cy="0" fill="#F56C6C" r="5"/>
</g>
<g class="scatter-point" transform="translate(153.13564,556.3017)">
<circle cx="0" cy="0" fill="#F56C6C" r="5"/>
</g>
<g class="scatter-point" transform="translate(157.51094,556.4827)">
<circle cx="0" cy="0" fill="#F56C6C" r="5"/>
</g>
<g class="scatter-point" transform="translate(161.88625,556.65485)">
<circle cx="0" cy="0" fill="#F56C6C" r="5"/>
</g>
<g class="scatter-point" transform="translate(166.26154,556.81854)">
<circle cx="0" cy="0" fill="#F56C6C" r="5"/>
</g>
<g class="scatter-point" transform="translate(170.63686,556.97424)">
<circle cx="0" cy="0" fill="#F56C6C" r="5"/>
</g>
<g class="scatter-point" transform="translate(175.01215,557.1224)">
<circle cx="0" cy="0" fill="#F56C6C" r="5"/>
</g>
<g class="scatter-point" transform="translate(179.38745,557.2632)">
<circle cx="0" cy="0" fill="#F56C6C" r="5"/>
</g>
<g class="scatter-point" transform="translate(183.76277,557.39716)">
<circle cx="0" cy="0" fill="#F56C6C" r="5"/>
</g>
<g class="scatter-point" transform="translate(188.13806,557.5246)">
<circle cx="0" cy="0" fill="#F56C6C" r="5"/>
</g>
<g class="scatter-point" transform="translate(192.51337,557.64575)">
<circle cx="0" cy="0" fill="#F56C6C" r="5"/>
</g>
<g class="scatter-point" transform="translate(196.88867,557.761)">
<circle cx="0" cy="0" fill="#F56C6C" r="5"/>
</g>
<g class="scatter-point" transform="translate(201.26398,557.8706)">
<circle cx="0" cy="0" fill="#F56C6C" r="5"/>
</g>
<g class="scatter-point" transform="translate(205.63928,557.97485)">
<circle cx="0" cy="0" fill="#F56C6C" r="5"/>
</g>
<g class="scatter-point" transform="translate(210.01457,558.074)">
<circle cx="0" cy="0" fill="#F56C6C" r="5"/>
</g>
<g class="scatter-point" transform="translate(214.3899,558.1683)">
<circle cx="0" cy="0" fill="#F56C6C" r="5"/>
</g>
<g class="scatter-point" transform="translate(218.7652,558.258)">
<circle cx="0" cy="0" fill="#F56C6C" r="5"/>
</g>
<g class="scatter-point" transform="translate(223.14049,558.34326)">
<circle cx="0" cy="0" fill="#F56C6C" r="5"/>
</g>
<g class="scatter-point" transform="translate(227.51581,558.42444)">
<circle cx="0" cy="0" fill="#F56C6C" r="5"/>
</g>
<g class="scatter-point" transform="translate(231.8911,558.5016)">
<circle cx="0" cy="0" fill="#F56C6C" r="5"/>
</g>
<g class="scatter-point" transform="translate(236.2664,558.57495)">
<circle cx="0" cy="0" fill="#F56C6C" r="5"/>
</g>
<g class="scatter-point" transform="translate(240.64171,558.6448)">
<circle cx="0" cy="0" fill="#F56C6C" r="5"/>
</g>
<g class="scatter-point" transform="translate(245.017,558.7111)">
<circle cx="0" cy="0" fill="#F56C6C" r="5"/>
</g>
<g class="scatter-point" transform="translate(249.39233,558.77423)">
<circle cx="0" cy="0" fill="#F56C6C" r="5"/>
</g>
<g class="scatter-point" transform="translate(253.76762,558.8343)">
<circle cx="0" cy="0" fill="#F56C6C" r="5"/>
</g>
<g class="scatter-point" transform="translate(258.14294,558.8914)">
<circle cx="0" cy="0" fill="#F56C6C" r="5"/>
</g>
<g class="scatter-point" transform="translate(262.51822,558.94574)">
<circle cx="0" cy="0" fill="#F56C6C" r="5"/>
</g>
<g class="scatter-point" transform="translate(266.89352,558.9974)">
<circle cx="0" cy="0" fill="#F56C6C" r="5"/>
</g>
<g class="scatter-point" transform="translate(271.26883,559.0465)">
<circle cx="0" cy="0" fill="#F56C6C" r="5"/>
</g>
<g class="scatter-point" transform="translate(275.64413,559.09326)">
<circle cx="0" cy="0" fill="#F56C6C" r="5"/>
</g>
<g class="scatter-point" transform="translate(280.01947,559.1377)">
<circle cx="0" cy="0" fill="#F56C6C" r="5"/>
</g>
<g class="scatter-point" transform="translate(284.39474,559.17993)">
<circle cx="0" cy="0" fill="#F56C6C" r="5"/>
</g>
<g class="scatter-point" transform="translate(288.77005,559.22015)">
<circle cx="0" cy="0" fill="#F56C6C" r="5"/>
</g>
<g class="scatter-point" transform="translate(293.14536,559.25836)">
<circle cx="0" cy="0" fill="#F56C6C" r="5"/>
</g>
<g class="scatter-point" transform="translate(297.52066,559.29474)">
<circle cx="0" cy="0" fill="#F56C6C" r="5"/>
</g>
<g class="scatter-point" transform="translate(301.89597,559.32935)">
<circle cx="0" cy="0" fill="#F56C6C" r="5"/>
</g>
<g class="scatter-point" transform="translate(306.27127,559.36224)">
<circle cx="0" cy="0" fill="#F56C6C" r="5"/>
</g>
<g class="scatter-point" transform="translate(310.64658,559.3935)">
<circle cx="0" cy="0" fill="#F56C6C" r="5"/>
</g>
<g class="scatter-point" transform="translate(315.02188,559.4233)">
<circle cx="0" cy="0" fill="#F56C6C" r="5"/>
</g>
<g class="scatter-point" transform="translate(319.3972,559.4516)">
<circle cx="0" cy="0" fill="#F56C6C" r="5"/>
</g>
<g class="scatter-point" transform="translate(323.7725,559.4785)">
<circle cx="0" cy="0" fill="#F56C6C" r="5"/>
</g>
<g class="scatter-point" transform="translate(328.14777,559.5041)">
<circle cx="0" cy="0" fill="#F56C6C" r="5"/>
</g>
<g class="scatter-point" transform="translate(332.52307,559.52844)">
<circle cx="0" cy="0" fill="#F56C6C" r="5"/>
</g>
<g class="scatter-point" transform="translate(336.8984,559.5516)">
<circle cx="0" cy="0" fill="#F56C6C" r="5"/>
</g>
<g class="scatter-point" transform="translate(341.2737,559.5736)">
<circle cx="0" cy="0" fill="#F56C6C" r="5"/>
</g>
<g class="scatter-point" transform="translate(345.64902,559.59454)">
<circle cx="0" cy="0" fill="#F56C6C" r="5"/>
</g>
<g class="scatter-point" transform="translate(350.0243,559.6145)">
<circle cx="0" cy="0" fill="#F56C6C" r="5"/>
</g>
<g class="scatter-point" transform="translate(354.3996,559.6334)">
<circle cx="0" cy="0" fill="#F56C6C" r="5"/>
</g>
<g class="scatter-point" transform="translate(358.7749,559.6514)">
<circle cx="0" cy="0" fill="#F56C6C" r="5"/>
</g>
<g class="scatter-point" transform="translate(363.1502,559.6686)">
<circle cx="0" cy="0" fill="#F56C6C" r="5"/>
</g>
<g class="scatter-point" transform="translate(367.52554,559.6849)">
<circle cx="0" cy="0" fill="#F56C6C" r="5"/>
</g>
<g class="scatter-point" transform="translate(371.90082,559.7004)">
<circle cx="0" cy="0" fill="#F56C6C" r="5"/>
</g>
<g class="scatter-point" transform="translate(376.27612,559.71515)">
<circle cx="0" cy="0" fill="#F56C6C" r="5"/>
</g>
<g class="scatter-point" transform="translate(380.65143,559.7291)">
<circle cx="0" cy="0" fill="#F56C6C" r="5"/>
</g>
<g class="scatter-point" transform="translate(385.02673,559.7425)">
<circle cx="0" cy="0" fill="#F56C6C" r="5"/>
</g>
<g class="scatter-point" transform="translate(389.40204,559.7552)">
<circle cx="0" cy="0" fill="#F56C6C" r="5"/>
</g>
<g class="scatter-point" transform="translate(393.77734,559.7672)">
<circle cx="0" cy="0" fill="#F56C6C" r="5"/>
</g>
<g class="scatter-point" transform="translate(398.15265,559.7787)">
<circle cx="0" cy="0" fill="#F56C6C" r="5"/>
</g>
<g class="scatter-point" transform="translate(402.52795,559.7896)">
<circle cx="0" cy="0" fill="#F56C6C" r="5"/>
</g>
<g class="scatter-point" transform="translate(406.90326,559.8)">
<circle cx="0" cy="0" fill="#F56C6C" r="5"/>
</g>
<g class="scatter-point" transform="translate(411.27856,559.8099)">
<circle cx="0" cy="0" fill="#F56C6C" r="5"/>
</g>
<g class="scatter-point" transform="translate(415.65387,559.8193)">
<circle cx="0" cy="0" fill="#F56C6C" r="5"/>
</g>
<g class="scatter-point" transform="translate(420.02914,559.8282)">
<circle cx="0" cy="0" fill="#F56C6C" r="5"/>
</g>
<g class="scatter-point" transform="translate(424.40448,559.8367)">
<circle cx="0" cy="0" fill="#F56C6C" r="5"/>
</g>
<g class="scatter-point" transform="translate(428.7798,559.8448)">
<circle cx="0" cy="0" fill="#F56C6C" r="5"/>
</g>
<g class="scatter-point" transform="translate(433.1551,559.8524)">
<circle cx="0" cy="0" fill="#F56C6C" r="5"/>
</g>
<g class="scatter-point" transform="translate(437.5304,559.85974)">
<circle cx="0" cy="0" fill="#F56C6C" r="5"/>
</g>
<g class="scatter-point" transform="translate(441.90567,559.8667)">
<circle cx="0" cy="0" fill="#F56C6C" r="5"/>
</g>
<g class="scatter-point" transform="translate(446.28098,559.8733)">
<circle cx="0" cy="0" fill="#F56C6C" r="5"/>
</g>
<g class="scatter-point" transform="translate(450.65628,559.8796)">
<circle cx="0" cy="0" fill="#F56C6C" r="5"/>
</g>
<g class="scatter-point" transform="translate(455.03162,559.88556)">
<circle cx="0" cy="0" fill="#F56C6C" r="5"/>
</g>
<g class="scatter-point" transform="translate(459.4069,559.89124)">
<circle cx="0" cy="0" fill="#F56C6C" r="5"/>
</g>
<g class="scatter-point" transform="translate(463.7822,559.89667)">
<circle cx="0" cy="0" fill="#F56C6C" r="5"/>
</g>
<g class="scatter-point" transform="translate(468.15753,559.9018)">
<circle cx="0" cy="0" fill="#F56C6C" r="5"/>
</g>
<g class="scatter-point" transform="translate(472.5328,559.9067)">
<circle cx="0" cy="0" fill="#F56C6C" r="5"/>
</g>
<g class="scatter-point" transform="translate(476.90814,559.9114)">
<circle cx="0" cy="0" fill="#F56C6C" r="5"/>
</g>
<g class="scatter-point" transform="translate(481.28342,559.9158)">
<circle cx="0" cy="0" fill="#F56C6C" r="5"/>
</g>
<g class="scatter-point" transform="translate(485.65872,559.92)">
<circle cx="0" cy="0" fill="#F56C6C" r="5"/>
</g>
<g class="scatter-point" transform="translate(490.034,559.924)">
<circle cx="0" cy="0" fill="#F56C6C" r="5"/>
</g>
<g class="scatter-point" transform="translate(494.40933,559.9278)">
<circle cx="0" cy="0" fill="#F56C6C" r="5"/>
</g>
<g class="scatter-point" transform="translate(498.78467,559.9314)">
<circle cx="0" cy="0" fill="#F56C6C" r="5"/>
</g>
<g class="scatter-point" transform="translate(503.15994,559.9349)">
<circle cx="0" cy="0" fill="#F56C6C" r="5"/>
</g>
<g class="scatter-point" transform="translate(507.53525,559.9381)">
<circle cx="0" cy="0" fill="#F56C6C" r="5"/>
</g>
<g class="scatter-point" transform="translate(511.91052,559.9412)">
<circle cx="0" cy="0" fill="#F56C6C" r="5"/>
</g>
<g class="scatter-point" transform="translate(516.2859,559.9442)">
<circle cx="0" cy="0" fill="#F56C6C" r="5"/>
</g>
<g class="scatter-point" transform="translate(520.66113,559.947)">
<circle cx="0" cy="0" fill="#F56C6C" r="5"/>
</g>
<g class="scatter-point" transform="translate(525.03644,559.9497)">
<circle cx="0" cy="0" fill="#F56C6C" r="5"/>
</g>
<g class="scatter-point" transform="translate(529.4118,559.9523)">
<circle cx="0" cy="0" fill="#F56C6C" r="5"/>
</g>
<g class="scatter-point" transform="translate(533.78705,559.95465)">
<circle cx="0" cy="0" fill="#F56C6C" r="5"/>
</g>
<g class="scatter-point" transform="translate(538.1624,559.957)">
<circle cx="0" cy="0" fill="#F56C6C" r="5"/>
</g>
<g class="scatter-point" transform="translate(542.53766,559.95917)">
<circle cx="0" cy="0" fill="#F56C6C" r="5"/>
</g>
<g class="scatter-point" transform="translate(546.91296,559.96124)">
<circle cx="0" cy="0" fill="#F56C6C" r="5"/>
</g>
<g class="scatter-point" transform="translate(551.28827,559.96326)">
<circle cx="0" cy="0" fill="#F56C6C" r="5"/>
</g>
<g class="scatter-point" transform="translate(555.6636,559.96515)">
<circle cx="0" cy="0" fill="#F56C6C" r="5"/>
</g>
<g class="scatter-point" transform="translate(560.03894,559.9669)">
<circle cx="0" cy="0" fill="#F56C6C" r="5"/>
</g>
<g class="scatter-point" transform="translate(564.4142,559.9686)">
<circle cx="0" cy="0" fill="#F56C6C" r="5"/>
</g>
<g class="scatter-point" transform="translate(568.7895,559.9703)">
<circle cx="0" cy="0" fill="#F56C6C" r="5"/>
</g>
<g class="scatter-point" transform="translate(573.1648,559.9718)">
<circle cx="0" cy="0" fill="#F56C6C" r="5"/>
</g>
<g class="scatter-point" transform="translate(577.5401,559.97327)">
<circle cx="0" cy="0" fill="#F56C6C" r="5"/>
</g>
<g class="scatter-point" transform="translate(581.9154,559.9747)">
<circle cx="0" cy="0" fill="#F56C6C" r="5"/>
</g>
<g class="scatter-point" transform="translate(586.2907,559.976)">
<circle cx="0" cy="0" fill="#F56C6C" r="5"/>
</g>
<g class="scatter-point" transform="translate(590.666,559.97723)">
<circle cx="0" cy="0" fill="#F56C6C" r="5"/>
</g>
<g class="scatter-point" transform="translate(595.0413,559.97845)">
<circle cx="0" cy="0" fill="#F56C6C" r="5"/>
</g>
<g class="scatter-point" transform="translate(599.4166,559.9796)">
<circle cx="0" cy="0" fill="#F56C6C" r="5"/>
</g>
<g class="scatter-point" transform="translate(603.79193,559.9807)">
<circle cx="0" cy="0" fill="#F56C6C" r="5"/>
</g>
<g class="scatter-point" transform="translate(608.16724,559.9817)">
<circle cx="0" cy="0" fill="#F56C6C" r="5"/>
</g>
<g class="scatter-point" transform="translate(612.54254,559.9827)">
<circle cx="0" cy="0" fill="#F56C6C" r="5"/>
</g>
<g class="scatter-point" transform="translate(616.91785,559.98364)">
<circle cx="0" cy="0" fill="#F56C6C" r="5"/>
</g>
<g class="scatter-point" transform="translate(621.29315,559.9845)">
<circle cx="0" cy="0" fill="#F56C6C" r="5"/>
</g>
<g class="scatter-point" transform="translate(625.66846,559.98535)">
<circle cx="0" cy="0" fill="#F56C6C" r="5"/>
</g>
<g class="scatter-point" transform="translate(630.04376,559.98615)">
<circle cx="0" cy="0" fill="#F56C6C" r="5"/>
</g>
<g class="scatter-point" transform="translate(634.419,559.98694)">
<circle cx="0" cy="0" fill="#F56C6C" r="5"/>
</g>
<g class="scatter-point" transform="translate(638.7944,559.9877)">
<circle cx="0" cy="0" fill="#F56C6C" r="5"/>
</g>
<g class="scatter-point" transform="translate(643.1697,559.98834)">
<circle cx="0" cy="0" fill="#F56C6C" r="5"/>
</g>
<g class="scatter-point" transform="translate(647.545,559.989)">
<circle cx="0" cy="0" fill="#F56C6C" r="5"/>
</g>
<g class="scatter-point" transform="translate(651.9203,559.9896)">
<circle cx="0" cy="0" fill="#F56C6C" r="5"/>
</g>
<g class="scatter-point" transform="translate(656.29553,559.99023)">
<circle cx="0" cy="0" fill="#F56C6C" r="5"/>
</g>
<g class="scatter-point" transform="translate(660.6709,559.9908)">
<circle cx="0" cy="0" fill="#F56C6C" r="5"/>
</g>
<g class="scatter-point" transform="translate(665.04614,559.99133)">
<circle cx="0" cy="0" fill="#F56C6C" r="5"/>
</g>
<g class="scatter-point" transform="translate(669.4215,559.9919)">
<circle cx="0" cy="0" fill="#F56C6C" r="5"/>
</g>
<g class="scatter-point" transform="translate(673.7968,559.9923)">
<circle cx="0" cy="0" fill="#F56C6C" r="5"/>
</g>
<g class="scatter-point" transform="translate(678.17206,559.9928)">
<circle cx="0" cy="0" fill="#F56C6C" r="5"/>
</g>
<g class="scatter-point" transform="translate(682.5474,559.9932)">
<circle cx="0" cy="0" fill="#F56C6C" r="5"/>
</g>
<g class="scatter-point" transform="translate(686.92267,559.99365)">
<circle cx="0" cy="0" fill="#F56C6C" r="5"/>
</g>
<g class="scatter-point" transform="translate(691.29803,559.9941)">
<circle cx="0" cy="0" fill="#F56C6C" r="5"/>
</g>
<g class="scatter-point" transform="translate(695.6733,559.99445)">
<circle cx="0" cy="0" fill="#F56C6C" r="5"/>
</g>
<g class="scatter-point" transform="translate(700.0486,559.9948)">
<circle cx="0" cy="0" fill="#F56C6C" r="5"/>
</g>
<g class="scatter-point" transform="translate(704.42395,559.9951)">
<circle cx="0" cy="0" fill="#F56C6C" r="5"/>
</g>
<g class="scatter-point" transform="translate(708.7992,559.9955)">
<circle cx="0" cy="0" fill="#F56C6C" r="5"/>
</g>
<g class="scatter-point" transform="translate(713.17456,559.9958)">
<circle cx="0" cy="0" fill="#F56C6C" r="5"/>
</g>
<g class="scatter-point" transform="translate(717.5498,559.9961)">
<circle cx="0" cy="0" fill="#F56C6C" r="5"/>
</g>
<g class="scatter-point" transform="translate(721.9251,559.99634)">
<circle cx="0" cy="0" fill="#F56C6C" r="5"/>
</g>
<g class="scatter-point" transform="translate(726.3004,559.99664)">
<circle cx="0" cy="0" fill="#F56C6C" r="5"/>
</g>
<g class="scatter-point" transform="translate(730.6757,559.9969)">
<circle cx="0" cy="0" fill="#F56C6C" r="5"/>
</g>
<g class="scatter-point" transform="translate(735.0511,559.99713)">
<circle cx="0" cy="0" fill="#F56C6C" r="5"/>
</g>
<g class="scatter-point" transform="translate(739.42633,559.9974)">
<circle cx="0" cy="0" fill="#F56C6C" r="5"/>
</g>
<g class="scatter-point" transform="translate(743.80164,559.99756)">
<circle cx="0" cy="0" fill="#F56C6C" r="5"/>
</g>
<g class="scatter-point" transform="translate(748.17694,559.9978)">
<circle cx="0" cy="0" fill="#F56C6C" r="5"/>
</g>
<g class="scatter-point" transform="translate(752.55225,559.998)">
<circle cx="0" cy="0" fill="#F56C6C" r="5"/>
</g>
<g class="scatter-point" transform="translate(756.92755,559.99817)">
<circle cx="0" cy="0" fill="#F56C6C" r="5"/>
</g>
<g class="scatter-point" transform="translate(761.30286,559.99835)">
<circle cx="0" cy="0" fill="#F56C6C" r="5"/>
</g>
<g class="scatter-point" transform="translate(765.67816,559.99854)">
<circle cx="0" cy="0" fill="#F56C6C" r="5"/>
</g>
<g class="scatter-point" transform="translate(770.05347,559.99866)">
<circle cx="0" cy="0" fill="#F56C6C" r="5"/>
</g>
<g class="scatter-point" transform="translate(774.4288,559.99884)">
<circle cx="0" cy="0" fill="#F56C6C" r="5"/>
</g>
<g class="scatter-point" transform="translate(778.8041,559.99896)">
<circle cx="0" cy="0" fill="#F56C6C" r="5"/>
</g>
<g class="scatter-point" transform="translate(783.1794,559.9991)">
<circle cx="0" cy="0" fill="#F56C6C" r="5"/>
</g>
<g class="scatter-point" transform="translate(787.5547,559.99927)">
<circle cx="0" cy="0" fill="#F56C6C" r="5"/>
</g>
<g class="scatter-point" transform="translate(791.93,559.9994)">
<circle cx="0" cy="0" fill="#F56C6C" r="5"/>
</g>
<g class="scatter-point" transform="translate(796.3053,559.9995)">
<circle cx="0" cy="0" fill="#F56C6C" r="5"/>
</g>
<g class="scatter-point" transform="translate(800.6806,559.9996)">
<circle cx="0" cy="0" fill="#F56C6C" r="5"/>
</g>
<g class="scatter-point" transform="translate(805.0559,559.9997)">
<circle cx="0" cy="0" fill="#F56C6C" r="5"/>
</g>
<g class="scatter-point" transform="translate(809.4312,559.9998)">
<circle cx="0" cy="0" fill="#F56C6C" r="5"/>
</g>
<g class="scatter-point" transform="translate(813.8065,559.9999)">
<circle cx="0" cy="0" fill="#F56C6C" r="5"/>
</g>
<g class="scatter-point" transform="translate(818.1818,560)">
<circle cx="0" cy="0" fill="#F56C6C" r="5"/>
</g>
</g>
</g>
</g>
</g>
</svg>