<svg height="700" viewBox="0 0 1000 700" width="1000" xmlns="http://www.w3.org/2000/svg">
<g class="g-chart">
<g class="g-title" transform="translate(500,25)">
<text dy=".35em" fill="#777" font-family="sans-serif" font-size="24px" text-anchor="middle" x="0" y="0">
Learning curve
</text>
</g>
<g class="x-axis" transform="translate(60,650)">
<line shape-rendering="crispEdges" stroke="#bbbbbb" stroke-width="1" x1="0" x2="900" y1="0" y2="0"/>
<g class="tick" transform="translate(74.17583,0)">
<line shape-rendering="crispEdges" stroke="#bbbbbb" stroke-width="1px" x1="0" x2="0" y1="0" y2="6"/>
<text dy=".35em" fill="#777" font-family="sans-serif" font-size="12px" text-anchor="middle" transform="rotate(0,0,16)" x="0" y="16">
200
</text>
</g>
<g class="tick" transform="translate(173.07692,0)">
<line shape-rendering="crispEdges" stroke="#bbbbbb" stroke-width="1px" x1="0" x2="0" y1="0" y2="6"/>
<text dy=".35em" fill="#777" font-family="sans-serif" font-size="12px" text-anchor="middle" transform="rotate(0,0,16)" x="0" y="16">
400
</text>
</g>
<g class="tick" transform="translate(271.97803,0)">
<line shape-rendering="crispEdges" stroke="#bbbbbb" stroke-width="1px" x1="0" x2="0" y1="0" y2="6"/>
<text dy=".35em" fill="#777" font-family="sans-serif" font-size="12px" text-anchor="middle" transform="rotate(0,0,16)" x="0" y="16">
600
</text>
</g>
<g class="tick" transform="translate(370.87912,0)">
<line shape-rendering="crispEdges" stroke="#bbbbbb" stroke-width="1px" x1="0" x2="0" y1="0" y2="6"/>
<text dy=".35em" fill="#777" font-family="sans-serif" font-size="12px" text-anchor="middle" transform="rotate(0,0,16)" x="0" y="16">
800
</text>
</g>
<g class="tick" transform="translate(469.7802,0)">
<line shape-rendering="crispEdges" stroke="#bbbbbb" stroke-width="1px" x1="0" x2="0" y1="0" y2="6"/>
<text dy=".35em" fill="#777" font-family="sans-serif" font-size="12px" text-anchor="middle" transform="rotate(0,0,16)" x="0" y="16">
1000
</text>
</g>
<g class="tick" transform="translate(568.68134,0)">
<line shape-rendering="crispEdges" stroke="#bbbbbb" stroke-width="1px" x1="0" x2="0" y1="0" y2="6"/>
<text dy=".35em" fill="#777" font-family="sans-serif" font-size="12px" text-anchor="middle" transform="rotate(0,0,16)" x="0" y="16">
1200
</text>
</g>
<g class="tick" transform="translate(667.5824,0)">
<line shape-rendering="crispEdges" stroke="#bbbbbb" stroke-width="1px" x1="0" x2="0" y1="0" y2="6"/>
<text dy=".35em" fill="#777" font-family="sans-serif" font-size="12px" text-anchor="middle" transform="rotate(0,0,16)" x="0" y="16">
1400
</text>
</g>
<g class="tick" transform="translate(766.4835,0)">
<line shape-rendering="crispEdges" stroke="#bbbbbb" stroke-width="1px" x1="0" x2="0" y1="0" y2="6"/>
<text dy=".35em" fill="#777" font-family="sans-serif" font-size="12px" text-anchor="middle" transform="rotate(0,0,16)" x="0" y="16">
1600
</text>
</g>
<g class="tick" transform="translate(865.3846,0)">
<line shape-rendering="crispEdges" stroke="#bbbbbb" stroke-width="1px" x1="0" x2="0" y1="0" y2="6"/>
<text dy=".35em" fill="#777" font-family="sans-serif" font-size="12px" text-anchor="middle" transform="rotate(0,0,16)" x="0" y="16">
1800
</text>
</g>
<text fill="#777" font-family="sans-serif" font-size="14px" text-anchor="middle" transform="rotate(0)" x="450" y="42">
Iteration
</text>
</g>
<g class="y-axis" transform="translate(60,90)">
<line shape-rendering="crispEdges" stroke="#bbbbbb" stroke-width="1" x1="0" x2="0" y1="0" y2="560"/>
<g class="tick" transform="translate(0,444.67508)">
<line shape-rendering="crispEdges" stroke="#bbbbbb" stroke-width="1px" x1="0" x2="-6" y1="0" y2="0"/>
<text dy=".35em" fill="#777" font-family="sans-serif" font-size="12px" text-anchor="end" transform="rotate(0,-12,0)" x="-12" y="0">
0.01
</text>
</g>
<g class="tick" transform="translate(0,329.25024)">
<line shape-rendering="crispEdges" stroke="#bbbbbb" stroke-width="1px" x1="0" x2="-6" y1="0" y2="0"/>
<text dy=".35em" fill="#777" font-family="sans-serif" font-size="12px" text-anchor="end" transform="rotate(0,-12,0)" x="-12" y="0">
0.02
</text>
</g>
<g class="tick" transform="translate(0,213.82541)">
<line shape-rendering="crispEdges" stroke="#bbbbbb" stroke-width="1px" x1="0" x2="-6" y1="0" y2="0"/>
<text dy=".35em" fill="#777" font-family="sans-serif" font-size="12px" text-anchor="end" transform="rotate(0,-12,0)" x="-12" y="0">
0.03
</text>
</g>
<g class="tick" transform="translate(0,98.400604)">
<line shape-rendering="crispEdges" stroke="#bbbbbb" stroke-width="1px" x1="0" x2="-6" y1="0" y2="0"/>
<text dy=".35em" fill="#777" font-family="sans-serif" font-size="12px" text-anchor="end" transform="rotate(0,-12,0)" x="-12" y="0">
0.04
</text>
</g>
<text fill="#777" font-family="sans-serif" font-size="14px" text-anchor="middle" transform="rotate(-90)" x="-280" y="-42">
Learning
</text>
</g>
<g class="g-view" transform="translate(60,90)">
<g>
<g class="line">
<path d="M0,186.70001 L24.725275,273.15063 L49.45055,336.37244 L74.17583,385.6571 L98.9011,424.0849 L123.62638,454.0475 L148.35165,477.40964 L173.07692,495.62537 L197.8022,509.8284 L222.52747,520.90265 L247.25276,529.53735 L271.97803,536.26996 L296.7033,541.5194 L321.4286,545.6125 L346.15384,548.8039 L370.87912,551.2923 L395.6044,553.23254 L420.32968,554.74536 L445.05493,555.92487 L469.7802,556.8446 L494.50552,557.5617 L519.2308,558.12085 L543.95605,558.5568 L568.68134,558.8967 L593.4066,559.1618 L618.13184,559.36847 L642.8572,559.5296 L667.5824,559.6552 L692.3077,559.7532 L717.03296,559.8296 L741.75824,559.8891 L766.4835,559.93555 L791.2088,559.97174 L815.934,560" fill="none" stroke="#F56C6C" stroke-width="2"/>
<g class="scatter-point" transform="translate(0,186.70001)">
<circle cx="0" cy="0" fill="#F56C6C" r="5"/>
</g>
<g class="scatter-point" transform="translate(24.725275,273.15063)">
<circle cx="0" cy="0" fill="#F56C6C" r="5"/>
</g>
<g class="scatter-point" transform="translate(49.45055,336.37244)">
<circle cx="0" cy="0" fill="#F56C6C" r="5"/>
</g>
<g class="scatter-point" transform="translate(74.17583,385.6571)">
<circle cx="0" cy="0" fill="#F56C6C" r="5"/>
</g>
<g class="scatter-point" transform="translate(98.9011,424.0849)">
<circle cx="0" cy="0" fill="#F56C6C" r="5"/>
</g>
<g class="scatter-point" transform="translate(123.62638,454.0475)">
<circle cx="0" cy="0" fill="#F56C6C" r="5"/>
</g>
<g class="scatter-point" transform="translate(148.35165,477.40964)">
<circle cx="0" cy="0" fill="#F56C6C" r="5"/>
</g>
<g class="scatter-point" transform="translate(173.07692,495.62537)">
<circle cx="0" cy="0" fill="#F56C6C" r="5"/>
</g>
<g class="scatter-point" transform="translate(197.8022,509.8284)">
<circle cx="0" cy="0" fill="#F56C6C" r="5"/>
</g>
<g class="scatter-point" transform="translate(222.52747,520.90265)">
<circle cx="0" cy="0" fill="#F56C6C" r="5"/>
</g>
<g class="scatter-point" transform="translate(247.25276,529.53735)">
<circle cx="0" cy="0" fill="#F56C6C" r="5"/>
</g>
<g class="scatter-point" transform="translate(271.97803,536.26996)">
<circle cx="0" cy="0" fill="#F56C6C" r="5"/>
</g>
<g class="scatter-point" transform="translate(296.7033,541.5194)">
<circle cx="0" cy="0" fill="#F56C6C" r="5"/>
</g>
<g class="scatter-point" transform="translate(321.4286,545.6125)">
<circle cx="0" cy="0" fill="#F56C6C" r="5"/>
</g>
<g class="scatter-point" transform="translate(346.15384,548.8039)">
<circle cx="0" cy="0" fill="#F56C6C" r="5"/>
</g>
<g class="scatter-point" transform="translate(370.87912,551.2923)">
<circle cx="0" cy="0" fill="#F56C6C" r="5"/>
</g>
<g class="scatter-point" transform="translate(395.6044,553.23254)">
<circle cx="0" cy="0" fill="#F56C6C" r="5"/>
</g>
<g class="scatter-point" transform="translate(420.32968,554.74536)">
<circle cx="0" cy="0" fill="#F56C6C" r="5"/>
</g>
<g class="scatter-point" transform="translate(445.05493,555.92487)">
<circle cx="0" cy="0" fill="#F56C6C" r="5"/>
</g>
<g class="scatter-point" transform="translate(469.7802,556.8446)">
<circle cx="0" cy="0" fill="#F56C6C" r="5"/>
</g>
<g class="scatter-point" transform="translate(494.50552,557.5617)">
<circle cx="0" cy="0" fill="#F56C6C" r="5"/>
</g>
<g class="scatter-point" transform="translate(519.2308,558.12085)">
<circle cx="0" cy="0" fill="#F56C6C" r="5"/>
</g>
<g class="scatter-point" transform="translate(543.95605,558.5568)">
<circle cx="0" cy="0" fill="#F56C6C" r="5"/>
</g>
<g class="scatter-point" transform="translate(568.68134,558.8967)">
<circle cx="0" cy="0" fill="#F56C6C" r="5"/>
</g>
<g class="scatter-point" transform="translate(593.4066,559.1618)">
<circle cx="0" cy="0" fill="#F56C6C" r="5"/>
</g>
<g class="scatter-point" transform="translate(618.13184,559.36847)">
<circle cx="0" cy="0" fill="#F56C6C" r="5"/>
</g>
<g class="scatter-point" transform="translate(642.8572,559.5296)">
<circle cx="0" cy="0" fill="#F56C6C" r="5"/>
</g>
<g class="scatter-point" transform="translate(667.5824,559.6552)">
<circle cx="0" cy="0" fill="#F56C6C" r="5"/>
</g>
<g class="scatter-point" transform="translate(692.3077,559.7532)">
<circle cx="0" cy="0" fill="#F56C6C" r="5"/>
</g>
<g class="scatter-point" transform="translate(717.03296,559.8296)">
<circle cx="0" cy="0" fill="#F56C6C" r="5"/>
</g>
<g class="scatter-point" transform="translate(741.75824,559.8891)">
<circle cx="0" cy="0" fill="#F56C6C" r="5"/>
</g>
<g class="scatter-point" transform="translate(766.4835,559.93555)">
<circle cx="0" cy="0" fill="#F56C6C" r="5"/>
</g>
<g class="scatter-point" transform="translate(791.2088,559.97174)">
<circle cx="0" cy="0" fill="#F56C6C" r="5"/>
</g>
<g class="scatter-point" transform="translate(815.934,560)">
<circle cx="0" cy="0" fill="#F56C6C" r="5"/>
</g>
</g>
</g>
</g>
</g>
</svg>