<svg height="700" viewBox="0 0 1000 700" width="1000" xmlns="http://www.w3.org/2000/svg">
<g class="g-chart">
<g class="g-title" transform="translate(500,25)">
<text dy=".35em" fill="#777" font-family="sans-serif" font-size="24px" text-anchor="middle" x="0" y="0">
Linear Regression 42
</text>
</g>
<g class="x-axis" transform="translate(60,650)">
<line shape-rendering="crispEdges" stroke="#bbbbbb" stroke-width="1" x1="0" x2="900" y1="0" y2="0"/>
<g class="tick" transform="translate(70.89281,0)">
<line shape-rendering="crispEdges" stroke="#bbbbbb" stroke-width="1px" x1="0" x2="0" y1="0" y2="6"/>
<text dy=".35em" fill="#777" font-family="sans-serif" font-size="12px" text-anchor="middle" transform="rotate(0,0,16)" x="0" y="16">
40000
</text>
</g>
<g class="tick" transform="translate(153.80353,0)">
<line shape-rendering="crispEdges" stroke="#bbbbbb" stroke-width="1px" x1="0" x2="0" y1="0" y2="6"/>
<text dy=".35em" fill="#777" font-family="sans-serif" font-size="12px" text-anchor="middle" transform="rotate(0,0,16)" x="0" y="16">
60000
</text>
</g>
<g class="tick" transform="translate(236.71425,0)">
<line shape-rendering="crispEdges" stroke="#bbbbbb" stroke-width="1px" x1="0" x2="0" y1="0" y2="6"/>
<text dy=".35em" fill="#777" font-family="sans-serif" font-size="12px" text-anchor="middle" transform="rotate(0,0,16)" x="0" y="16">
80000
</text>
</g>
<g class="tick" transform="translate(319.62497,0)">
<line shape-rendering="crispEdges" stroke="#bbbbbb" stroke-width="1px" x1="0" x2="0" y1="0" y2="6"/>
<text dy=".35em" fill="#777" font-family="sans-serif" font-size="12px" text-anchor="middle" transform="rotate(0,0,16)" x="0" y="16">
100000
</text>
</g>
<g class="tick" transform="translate(402.53568,0)">
<line shape-rendering="crispEdges" stroke="#bbbbbb" stroke-width="1px" x1="0" x2="0" y1="0" y2="6"/>
<text dy=".35em" fill="#777" font-family="sans-serif" font-size="12px" text-anchor="middle" transform="rotate(0,0,16)" x="0" y="16">
120000
</text>
</g>
<g class="tick" transform="translate(485.4464,0)">
<line shape-rendering="crispEdges" stroke="#bbbbbb" stroke-width="1px" x1="0" x2="0" y1="0" y2="6"/>
<text dy=".35em" fill="#777" font-family="sans-serif" font-size="12px" text-anchor="middle" transform="rotate(0,0,16)" x="0" y="16">
140000
</text>
</g>
<g class="tick" transform="translate(568.3571,0)">
<line shape-rendering="crispEdges" stroke="#bbbbbb" stroke-width="1px" x1="0" x2="0" y1="0" y2="6"/>
<text dy=".35em" fill="#777" font-family="sans-serif" font-size="12px" text-anchor="middle" transform="rotate(0,0,16)" x="0" y="16">
160000
</text>
</g>
<g class="tick" transform="translate(651.2679,0)">
<line shape-rendering="crispEdges" stroke="#bbbbbb" stroke-width="1px" x1="0" x2="0" y1="0" y2="6"/>
<text dy=".35em" fill="#777" font-family="sans-serif" font-size="12px" text-anchor="middle" transform="rotate(0,0,16)" x="0" y="16">
180000
</text>
</g>
<g class="tick" transform="translate(734.1785,0)">
<line shape-rendering="crispEdges" stroke="#bbbbbb" stroke-width="1px" x1="0" x2="0" y1="0" y2="6"/>
<text dy=".35em" fill="#777" font-family="sans-serif" font-size="12px" text-anchor="middle" transform="rotate(0,0,16)" x="0" y="16">
200000
</text>
</g>
<g class="tick" transform="translate(817.0893,0)">
<line shape-rendering="crispEdges" stroke="#bbbbbb" stroke-width="1px" x1="0" x2="0" y1="0" y2="6"/>
<text dy=".35em" fill="#777" font-family="sans-serif" font-size="12px" text-anchor="middle" transform="rotate(0,0,16)" x="0" y="16">
220000
</text>
</g>
<g class="tick" transform="translate(900,0)">
<line shape-rendering="crispEdges" stroke="#bbbbbb" stroke-width="1px" x1="0" x2="0" y1="0" y2="6"/>
<text dy=".35em" fill="#777" font-family="sans-serif" font-size="12px" text-anchor="middle" transform="rotate(0,0,16)" x="0" y="16">
240000
</text>
</g>
<text fill="#777" font-family="sans-serif" font-size="14px" text-anchor="middle" transform="rotate(0)" x="450" y="42">
km
</text>
</g>
<g class="y-axis" transform="translate(60,50)">
<line shape-rendering="crispEdges" stroke="#bbbbbb" stroke-width="1" x1="0" x2="0" y1="0" y2="600"/>
<g class="tick" transform="translate(0,554.7414)">
<line shape-rendering="crispEdges" stroke="#bbbbbb" stroke-width="1px" x1="0" x2="-6" y1="0" y2="0"/>
<text dy=".35em" fill="#777" font-family="sans-serif" font-size="12px" text-anchor="end" transform="rotate(0,-12,0)" x="-12" y="0">
4000
</text>
</g>
<g class="tick" transform="translate(0,490.0862)">
<line shape-rendering="crispEdges" stroke="#bbbbbb" stroke-width="1px" x1="0" x2="-6" y1="0" y2="0"/>
<text dy=".35em" fill="#777" font-family="sans-serif" font-size="12px" text-anchor="end" transform="rotate(0,-12,0)" x="-12" y="0">
4500
</text>
</g>
<g class="tick" transform="translate(0,425.43103)">
<line shape-rendering="crispEdges" stroke="#bbbbbb" stroke-width="1px" x1="0" x2="-6" y1="0" y2="0"/>
<text dy=".35em" fill="#777" font-family="sans-serif" font-size="12px" text-anchor="end" transform="rotate(0,-12,0)" x="-12" y="0">
5000
</text>
</g>
<g class="tick" transform="translate(0,360.77588)">
<line shape-rendering="crispEdges" stroke="#bbbbbb" stroke-width="1px" x1="0" x2="-6" y1="0" y2="0"/>
<text dy=".35em" fill="#777" font-family="sans-serif" font-size="12px" text-anchor="end" transform="rotate(0,-12,0)" x="-12" y="0">
5500
</text>
</g>
<g class="tick" transform="translate(0,296.1207)">
<line shape-rendering="crispEdges" stroke="#bbbbbb" stroke-width="1px" x1="0" x2="-6" y1="0" y2="0"/>
<text dy=".35em" fill="#777" font-family="sans-serif" font-size="12px" text-anchor="end" transform="rotate(0,-12,0)" x="-12" y="0">
6000
</text>
</g>
<g class="tick" transform="translate(0,231.46552)">
<line shape-rendering="crispEdges" stroke="#bbbbbb" stroke-width="1px" x1="0" x2="-6" y1="0" y2="0"/>
<text dy=".35em" fill="#777" font-family="sans-serif" font-size="12px" text-anchor="end" transform="rotate(0,-12,0)" x="-12" y="0">
6500
</text>
</g>
<g class="tick" transform="translate(0,166.81033)">
<line shape-rendering="crispEdges" stroke="#bbbbbb" stroke-width="1px" x1="0" x2="-6" y1="0" y2="0"/>
<text dy=".35em" fill="#777" font-family="sans-serif" font-size="12px" text-anchor="end" transform="rotate(0,-12,0)" x="-12" y="0">
7000
</text>
</g>
<g class="tick" transform="translate(0,102.15518)">
<line shape-rendering="crispEdges" stroke="#bbbbbb" stroke-width="1px" x1="0" x2="-6" y1="0" y2="0"/>
<text dy=".35em" fill="#777" font-family="sans-serif" font-size="12px" text-anchor="end" transform="rotate(0,-12,0)" x="-12" y="0">
7500
</text>
</g>
<g class="tick" transform="translate(0,37.5)">
<line shape-rendering="crispEdges" stroke="#bbbbbb" stroke-width="1px" x1="0" x2="-6" y1="0" y2="0"/>
<text dy=".35em" fill="#777" font-family="sans-serif" font-size="12px" text-anchor="end" transform="rotate(0,-12,0)" x="-12" y="0">
8000
</text>
</g>
<text fill="#777" font-family="sans-serif" font-size="14px" text-anchor="middle" transform="rotate(-90)" x="-300" y="-42">
price
</text>
</g>
<g class="g-view" transform="translate(60,50)">
<g>
<g class="scatter-point" transform="translate(900,600)">
<rect fill="#409EFF" height="10" width="10" x="-5" y="-5"/>
</g>
<g class="scatter-point" transform="translate(484.61728,580.60345)">
<rect fill="#409EFF" height="10" width="10" x="-5" y="-5"/>
</g>
<g class="scatter-point" transform="translate(528.97455,503.01724)">
<rect fill="#409EFF" height="10" width="10" x="-5" y="-5"/>
</g>
<g class="scatter-point" transform="translate(674.1926,496.55173)">
<rect fill="#409EFF" height="10" width="10" x="-5" y="-5"/>
</g>
<g class="scatter-point" transform="translate(634.6857,393.10345)">
<rect fill="#409EFF" height="10" width="10" x="-5" y="-5"/>
</g>
<g class="scatter-point" transform="translate(380.9789,380.17242)">
<rect fill="#409EFF" height="10" width="10" x="-5" y="-5"/>
</g>
<g class="scatter-point" transform="translate(596.54675,321.98276)">
<rect fill="#409EFF" height="10" width="10" x="-5" y="-5"/>
</g>
<g class="scatter-point" transform="translate(274.02408,297.4138)">
<rect fill="#409EFF" height="10" width="10" x="-5" y="-5"/>
</g>
<g class="scatter-point" transform="translate(504.10135,296.25)">
<rect fill="#409EFF" height="10" width="10" x="-5" y="-5"/>
</g>
<g class="scatter-point" transform="translate(253.29639,270.25864)">
<rect fill="#409EFF" height="10" width="10" x="-5" y="-5"/>
</g>
<g class="scatter-point" transform="translate(245.12555,245.68967)">
<rect fill="#409EFF" height="10" width="10" x="-5" y="-5"/>
</g>
<g class="scatter-point" transform="translate(166.48888,245.68967)">
<rect fill="#409EFF" height="10" width="10" x="-5" y="-5"/>
</g>
<g class="scatter-point" transform="translate(211.84103,218.53448)">
<rect fill="#409EFF" height="10" width="10" x="-5" y="-5"/>
</g>
<g class="scatter-point" transform="translate(309.26114,192.6724)">
<rect fill="#409EFF" height="10" width="10" x="-5" y="-5"/>
</g>
<g class="scatter-point" transform="translate(182.82228,192.6724)">
<rect fill="#409EFF" height="10" width="10" x="-5" y="-5"/>
</g>
<g class="scatter-point" transform="translate(220.23573,179.74136)">
<rect fill="#409EFF" height="10" width="10" x="-5" y="-5"/>
</g>
<g class="scatter-point" transform="translate(105.0313,179.74136)">
<rect fill="#409EFF" height="10" width="10" x="-5" y="-5"/>
</g>
<g class="scatter-point" transform="translate(290.6062,168.10345)">
<rect fill="#409EFF" height="10" width="10" x="-5" y="-5"/>
</g>
<g class="scatter-point" transform="translate(157.73764,103.44827)">
<rect fill="#409EFF" height="10" width="10" x="-5" y="-5"/>
</g>
<g class="scatter-point" transform="translate(177.3253,95.04312)">
<rect fill="#409EFF" height="10" width="10" x="-5" y="-5"/>
</g>
<g class="scatter-point" transform="translate(128.93031,38.79309)">
<rect fill="#409EFF" height="10" width="10" x="-5" y="-5"/>
</g>
<g class="scatter-point" transform="translate(189.04059,38.79309)">
<rect fill="#409EFF" height="10" width="10" x="-5" y="-5"/>
</g>
<g class="scatter-point" transform="translate(0,38.79309)">
<rect fill="#409EFF" height="10" width="10" x="-5" y="-5"/>
</g>
<g class="scatter-point" transform="translate(161.2199,0)">
<rect fill="#409EFF" height="10" width="10" x="-5" y="-5"/>
</g>
</g>
<g>
<g class="line">
<path d="M-94.92863,-27.045166 L1098.9857,771.5844" fill="none" stroke="#F56C6C" stroke-width="2"/>
<g class="scatter-point" transform="translate(-94.92863,-27.045166)">
<circle cx="0" cy="0" fill="#F56C6C" r="5"/>
</g>
<g class="scatter-point" transform="translate(1098.9857,771.5844)">
<circle cx="0" cy="0" fill="#F56C6C" r="5"/>
</g>
</g>
</g>
</g>
</g>
</svg>